%TF.GenerationSoftware,KiCad,Pcbnew,7.0.2*%
%TF.CreationDate,2024-04-09T17:47:28-07:00*%
%TF.ProjectId,RFM22BPCB,52464d32-3242-4504-9342-2e6b69636164,rev?*%
%TF.SameCoordinates,Original*%
%TF.FileFunction,Legend,Top*%
%TF.FilePolarity,Positive*%
%FSLAX46Y46*%
G04 Gerber Fmt 4.6, Leading zero omitted, Abs format (unit mm)*
G04 Created by KiCad (PCBNEW 7.0.2) date 2024-04-09 17:47:28*
%MOMM*%
%LPD*%
G01*
G04 APERTURE LIST*
%ADD10C,0.300000*%
%ADD11C,0.200000*%
%ADD12C,0.150000*%
%ADD13C,0.100000*%
%ADD14C,0.120000*%
%ADD15C,1.500000*%
G04 APERTURE END LIST*
D10*
X172043483Y-85030895D02*
X171329200Y-85028917D01*
X171329200Y-85028917D02*
X171255793Y-85743002D01*
X171255793Y-85743002D02*
X171327419Y-85671772D01*
X171327419Y-85671772D02*
X171470473Y-85600739D01*
X171470473Y-85600739D02*
X171827615Y-85601728D01*
X171827615Y-85601728D02*
X171970274Y-85673552D01*
X171970274Y-85673552D02*
X172041504Y-85745178D01*
X172041504Y-85745178D02*
X172112537Y-85888233D01*
X172112537Y-85888233D02*
X172111548Y-86245374D01*
X172111548Y-86245374D02*
X172039724Y-86388033D01*
X172039724Y-86388033D02*
X171968097Y-86459264D01*
X171968097Y-86459264D02*
X171825043Y-86530296D01*
X171825043Y-86530296D02*
X171467902Y-86529307D01*
X171467902Y-86529307D02*
X171325243Y-86457483D01*
X171325243Y-86457483D02*
X171254012Y-86385857D01*
X172754006Y-86390011D02*
X172825237Y-86461638D01*
X172825237Y-86461638D02*
X172753610Y-86532868D01*
X172753610Y-86532868D02*
X172682380Y-86461242D01*
X172682380Y-86461242D02*
X172754006Y-86390011D01*
X172754006Y-86390011D02*
X172753610Y-86532868D01*
X173757762Y-85035644D02*
X173900618Y-85036039D01*
X173900618Y-85036039D02*
X174043277Y-85107863D01*
X174043277Y-85107863D02*
X174114507Y-85179489D01*
X174114507Y-85179489D02*
X174185540Y-85322544D01*
X174185540Y-85322544D02*
X174256177Y-85608455D01*
X174256177Y-85608455D02*
X174255188Y-85965596D01*
X174255188Y-85965596D02*
X174182968Y-86251112D01*
X174182968Y-86251112D02*
X174111144Y-86393770D01*
X174111144Y-86393770D02*
X174039518Y-86465001D01*
X174039518Y-86465001D02*
X173896463Y-86536033D01*
X173896463Y-86536033D02*
X173753607Y-86535638D01*
X173753607Y-86535638D02*
X173610948Y-86463814D01*
X173610948Y-86463814D02*
X173539718Y-86392188D01*
X173539718Y-86392188D02*
X173468685Y-86249133D01*
X173468685Y-86249133D02*
X173398048Y-85963222D01*
X173398048Y-85963222D02*
X173399037Y-85606081D01*
X173399037Y-85606081D02*
X173471257Y-85320565D01*
X173471257Y-85320565D02*
X173543081Y-85177907D01*
X173543081Y-85177907D02*
X173614707Y-85106676D01*
X173614707Y-85106676D02*
X173757762Y-85035644D01*
X175614897Y-85040787D02*
X174900614Y-85038809D01*
X174900614Y-85038809D02*
X174827207Y-85752894D01*
X174827207Y-85752894D02*
X174898833Y-85681664D01*
X174898833Y-85681664D02*
X175041888Y-85610631D01*
X175041888Y-85610631D02*
X175399029Y-85611620D01*
X175399029Y-85611620D02*
X175541688Y-85683444D01*
X175541688Y-85683444D02*
X175612918Y-85755070D01*
X175612918Y-85755070D02*
X175683951Y-85898125D01*
X175683951Y-85898125D02*
X175682962Y-86255266D01*
X175682962Y-86255266D02*
X175611138Y-86397925D01*
X175611138Y-86397925D02*
X175539512Y-86469155D01*
X175539512Y-86469155D02*
X175396457Y-86540188D01*
X175396457Y-86540188D02*
X175039316Y-86539199D01*
X175039316Y-86539199D02*
X174896657Y-86467375D01*
X174896657Y-86467375D02*
X174825427Y-86395749D01*
X176970649Y-85544544D02*
X176967879Y-86544541D01*
X176615090Y-84972129D02*
X176254981Y-86042564D01*
X176254981Y-86042564D02*
X177183549Y-86045136D01*
X178400600Y-85048503D02*
X178114886Y-85047712D01*
X178114886Y-85047712D02*
X177971832Y-85118744D01*
X177971832Y-85118744D02*
X177900206Y-85189975D01*
X177900206Y-85189975D02*
X177756756Y-85403864D01*
X177756756Y-85403864D02*
X177684536Y-85689379D01*
X177684536Y-85689379D02*
X177682953Y-86260806D01*
X177682953Y-86260806D02*
X177753986Y-86403860D01*
X177753986Y-86403860D02*
X177825216Y-86475486D01*
X177825216Y-86475486D02*
X177967875Y-86547310D01*
X177967875Y-86547310D02*
X178253588Y-86548102D01*
X178253588Y-86548102D02*
X178396643Y-86477069D01*
X178396643Y-86477069D02*
X178468269Y-86405839D01*
X178468269Y-86405839D02*
X178540093Y-86263180D01*
X178540093Y-86263180D02*
X178541082Y-85906038D01*
X178541082Y-85906038D02*
X178470049Y-85762984D01*
X178470049Y-85762984D02*
X178398819Y-85691358D01*
X178398819Y-85691358D02*
X178256160Y-85619534D01*
X178256160Y-85619534D02*
X177970447Y-85618742D01*
X177970447Y-85618742D02*
X177827393Y-85689775D01*
X177827393Y-85689775D02*
X177755766Y-85761005D01*
X177755766Y-85761005D02*
X177683943Y-85903664D01*
X180325008Y-86553839D02*
X180327778Y-85553843D01*
X180327382Y-85696699D02*
X180399009Y-85625469D01*
X180399009Y-85625469D02*
X180542063Y-85554436D01*
X180542063Y-85554436D02*
X180756348Y-85555030D01*
X180756348Y-85555030D02*
X180899007Y-85626854D01*
X180899007Y-85626854D02*
X180970039Y-85769908D01*
X180970039Y-85769908D02*
X180967863Y-86555620D01*
X180970039Y-85769908D02*
X181041863Y-85627249D01*
X181041863Y-85627249D02*
X181184918Y-85556217D01*
X181184918Y-85556217D02*
X181399203Y-85556810D01*
X181399203Y-85556810D02*
X181541861Y-85628634D01*
X181541861Y-85628634D02*
X181612894Y-85771689D01*
X181612894Y-85771689D02*
X181610718Y-86557400D01*
X182325001Y-86559378D02*
X182327770Y-85559382D01*
X182327375Y-85702239D02*
X182399001Y-85631008D01*
X182399001Y-85631008D02*
X182542055Y-85559976D01*
X182542055Y-85559976D02*
X182756340Y-85560569D01*
X182756340Y-85560569D02*
X182898999Y-85632393D01*
X182898999Y-85632393D02*
X182970032Y-85775448D01*
X182970032Y-85775448D02*
X182967855Y-86561159D01*
X182970032Y-85775448D02*
X183041856Y-85632789D01*
X183041856Y-85632789D02*
X183184910Y-85561756D01*
X183184910Y-85561756D02*
X183399195Y-85562350D01*
X183399195Y-85562350D02*
X183541854Y-85634174D01*
X183541854Y-85634174D02*
X183612886Y-85777228D01*
X183612886Y-85777228D02*
X183610710Y-86562940D01*
D11*
X169012985Y-94583602D02*
X169027757Y-89250212D01*
X174067585Y-94597602D02*
X174082357Y-89264212D01*
X169026133Y-89836630D02*
X174080733Y-89850630D01*
X169026133Y-89836630D02*
X174080733Y-89850630D01*
X169026133Y-89836630D02*
X170154257Y-89253332D01*
X169026133Y-89836630D02*
X170151008Y-90426169D01*
X174080733Y-89850630D02*
X172952609Y-90433928D01*
X174080733Y-89850630D02*
X172955858Y-89261091D01*
D10*
X139857229Y-83613086D02*
X139142946Y-83615054D01*
X139142946Y-83615054D02*
X139073486Y-84329533D01*
X139073486Y-84329533D02*
X139144717Y-84257908D01*
X139144717Y-84257908D02*
X139287377Y-84186086D01*
X139287377Y-84186086D02*
X139644518Y-84185103D01*
X139644518Y-84185103D02*
X139787572Y-84256137D01*
X139787572Y-84256137D02*
X139859197Y-84327369D01*
X139859197Y-84327369D02*
X139931019Y-84470029D01*
X139931019Y-84470029D02*
X139932003Y-84827170D01*
X139932003Y-84827170D02*
X139860968Y-84970224D01*
X139860968Y-84970224D02*
X139789736Y-85041849D01*
X139789736Y-85041849D02*
X139647076Y-85113670D01*
X139647076Y-85113670D02*
X139289935Y-85114654D01*
X139289935Y-85114654D02*
X139146882Y-85043620D01*
X139146882Y-85043620D02*
X139075256Y-84972388D01*
X140575250Y-84968256D02*
X140646875Y-85039487D01*
X140646875Y-85039487D02*
X140575644Y-85111112D01*
X140575644Y-85111112D02*
X140504019Y-85039881D01*
X140504019Y-85039881D02*
X140575250Y-84968256D01*
X140575250Y-84968256D02*
X140575644Y-85111112D01*
X141571508Y-83608363D02*
X141714365Y-83607970D01*
X141714365Y-83607970D02*
X141857418Y-83679004D01*
X141857418Y-83679004D02*
X141929043Y-83750236D01*
X141929043Y-83750236D02*
X142000865Y-83892896D01*
X142000865Y-83892896D02*
X142073080Y-84178412D01*
X142073080Y-84178412D02*
X142074064Y-84535554D01*
X142074064Y-84535554D02*
X142003423Y-84821464D01*
X142003423Y-84821464D02*
X141932388Y-84964517D01*
X141932388Y-84964517D02*
X141861157Y-85036142D01*
X141861157Y-85036142D02*
X141718497Y-85107964D01*
X141718497Y-85107964D02*
X141575640Y-85108358D01*
X141575640Y-85108358D02*
X141432587Y-85037323D01*
X141432587Y-85037323D02*
X141360962Y-84966091D01*
X141360962Y-84966091D02*
X141289140Y-84823431D01*
X141289140Y-84823431D02*
X141216925Y-84537915D01*
X141216925Y-84537915D02*
X141215941Y-84180774D01*
X141215941Y-84180774D02*
X141286582Y-83894864D01*
X141286582Y-83894864D02*
X141357617Y-83751810D01*
X141357617Y-83751810D02*
X141428848Y-83680185D01*
X141428848Y-83680185D02*
X141571508Y-83608363D01*
X142930416Y-84247479D02*
X142787363Y-84176445D01*
X142787363Y-84176445D02*
X142715738Y-84105213D01*
X142715738Y-84105213D02*
X142643916Y-83962553D01*
X142643916Y-83962553D02*
X142643719Y-83891125D01*
X142643719Y-83891125D02*
X142714754Y-83748072D01*
X142714754Y-83748072D02*
X142785986Y-83676446D01*
X142785986Y-83676446D02*
X142928645Y-83604625D01*
X142928645Y-83604625D02*
X143214359Y-83603838D01*
X143214359Y-83603838D02*
X143357412Y-83674872D01*
X143357412Y-83674872D02*
X143429037Y-83746104D01*
X143429037Y-83746104D02*
X143500859Y-83888764D01*
X143500859Y-83888764D02*
X143501056Y-83960192D01*
X143501056Y-83960192D02*
X143430021Y-84103245D01*
X143430021Y-84103245D02*
X143358789Y-84174870D01*
X143358789Y-84174870D02*
X143216130Y-84246692D01*
X143216130Y-84246692D02*
X142930416Y-84247479D01*
X142930416Y-84247479D02*
X142787757Y-84319301D01*
X142787757Y-84319301D02*
X142716525Y-84390926D01*
X142716525Y-84390926D02*
X142645490Y-84533980D01*
X142645490Y-84533980D02*
X142646277Y-84819693D01*
X142646277Y-84819693D02*
X142718099Y-84962353D01*
X142718099Y-84962353D02*
X142789724Y-85033584D01*
X142789724Y-85033584D02*
X142932778Y-85104619D01*
X142932778Y-85104619D02*
X143218491Y-85103832D01*
X143218491Y-85103832D02*
X143361151Y-85032010D01*
X143361151Y-85032010D02*
X143432382Y-84960385D01*
X143432382Y-84960385D02*
X143503417Y-84817332D01*
X143503417Y-84817332D02*
X143502630Y-84531618D01*
X143502630Y-84531618D02*
X143430808Y-84388959D01*
X143430808Y-84388959D02*
X143359183Y-84317727D01*
X143359183Y-84317727D02*
X143216130Y-84246692D01*
X144071891Y-83744333D02*
X144143123Y-83672708D01*
X144143123Y-83672708D02*
X144285783Y-83600886D01*
X144285783Y-83600886D02*
X144642924Y-83599902D01*
X144642924Y-83599902D02*
X144785978Y-83670937D01*
X144785978Y-83670937D02*
X144857603Y-83742168D01*
X144857603Y-83742168D02*
X144929425Y-83884828D01*
X144929425Y-83884828D02*
X144929818Y-84027685D01*
X144929818Y-84027685D02*
X144858980Y-84242166D01*
X144858980Y-84242166D02*
X144004202Y-85101667D01*
X144004202Y-85101667D02*
X144932770Y-85099109D01*
X145857205Y-83596557D02*
X146000062Y-83596163D01*
X146000062Y-83596163D02*
X146143115Y-83667198D01*
X146143115Y-83667198D02*
X146214740Y-83738430D01*
X146214740Y-83738430D02*
X146286562Y-83881090D01*
X146286562Y-83881090D02*
X146358777Y-84166606D01*
X146358777Y-84166606D02*
X146359761Y-84523747D01*
X146359761Y-84523747D02*
X146289120Y-84809657D01*
X146289120Y-84809657D02*
X146218085Y-84952711D01*
X146218085Y-84952711D02*
X146146854Y-85024336D01*
X146146854Y-85024336D02*
X146004194Y-85096158D01*
X146004194Y-85096158D02*
X145861337Y-85096551D01*
X145861337Y-85096551D02*
X145718284Y-85025517D01*
X145718284Y-85025517D02*
X145646659Y-84954285D01*
X145646659Y-84954285D02*
X145574837Y-84811625D01*
X145574837Y-84811625D02*
X145502621Y-84526109D01*
X145502621Y-84526109D02*
X145501638Y-84168967D01*
X145501638Y-84168967D02*
X145572279Y-83883057D01*
X145572279Y-83883057D02*
X145643314Y-83740004D01*
X145643314Y-83740004D02*
X145714545Y-83668379D01*
X145714545Y-83668379D02*
X145857205Y-83596557D01*
X148147042Y-85090255D02*
X148144287Y-84090258D01*
X148144681Y-84233115D02*
X148215912Y-84161490D01*
X148215912Y-84161490D02*
X148358572Y-84089668D01*
X148358572Y-84089668D02*
X148572857Y-84089078D01*
X148572857Y-84089078D02*
X148715911Y-84160112D01*
X148715911Y-84160112D02*
X148787732Y-84302772D01*
X148787732Y-84302772D02*
X148789897Y-85088484D01*
X148787732Y-84302772D02*
X148858767Y-84159719D01*
X148858767Y-84159719D02*
X149001427Y-84087897D01*
X149001427Y-84087897D02*
X149215712Y-84087307D01*
X149215712Y-84087307D02*
X149358765Y-84158342D01*
X149358765Y-84158342D02*
X149430587Y-84301001D01*
X149430587Y-84301001D02*
X149432752Y-85086713D01*
X150147035Y-85084745D02*
X150144280Y-84084749D01*
X150144673Y-84227605D02*
X150215905Y-84155980D01*
X150215905Y-84155980D02*
X150358565Y-84084158D01*
X150358565Y-84084158D02*
X150572850Y-84083568D01*
X150572850Y-84083568D02*
X150715903Y-84154603D01*
X150715903Y-84154603D02*
X150787725Y-84297263D01*
X150787725Y-84297263D02*
X150789889Y-85082974D01*
X150787725Y-84297263D02*
X150858760Y-84154209D01*
X150858760Y-84154209D02*
X151001419Y-84082387D01*
X151001419Y-84082387D02*
X151215704Y-84081797D01*
X151215704Y-84081797D02*
X151358758Y-84152832D01*
X151358758Y-84152832D02*
X151430579Y-84295492D01*
X151430579Y-84295492D02*
X151432744Y-85081203D01*
D11*
X153010223Y-94583602D02*
X152996593Y-89635924D01*
X147928223Y-94597602D02*
X147914593Y-89649924D01*
X152998208Y-90222341D02*
X147916208Y-90236341D01*
X152998208Y-90222341D02*
X147916208Y-90236341D01*
X152998208Y-90222341D02*
X151873324Y-90811863D01*
X152998208Y-90222341D02*
X151870093Y-89639026D01*
X147916208Y-90236341D02*
X149041092Y-89646819D01*
X147916208Y-90236341D02*
X149044323Y-90819656D01*
D10*
X154940173Y-84999929D02*
X154083030Y-84999929D01*
X154511601Y-84999929D02*
X154511601Y-83499929D01*
X154511601Y-83499929D02*
X154368744Y-83714215D01*
X154368744Y-83714215D02*
X154225887Y-83857072D01*
X154225887Y-83857072D02*
X154083030Y-83928501D01*
X156225887Y-83499929D02*
X155940172Y-83499929D01*
X155940172Y-83499929D02*
X155797315Y-83571358D01*
X155797315Y-83571358D02*
X155725887Y-83642786D01*
X155725887Y-83642786D02*
X155583029Y-83857072D01*
X155583029Y-83857072D02*
X155511601Y-84142786D01*
X155511601Y-84142786D02*
X155511601Y-84714215D01*
X155511601Y-84714215D02*
X155583029Y-84857072D01*
X155583029Y-84857072D02*
X155654458Y-84928501D01*
X155654458Y-84928501D02*
X155797315Y-84999929D01*
X155797315Y-84999929D02*
X156083029Y-84999929D01*
X156083029Y-84999929D02*
X156225887Y-84928501D01*
X156225887Y-84928501D02*
X156297315Y-84857072D01*
X156297315Y-84857072D02*
X156368744Y-84714215D01*
X156368744Y-84714215D02*
X156368744Y-84357072D01*
X156368744Y-84357072D02*
X156297315Y-84214215D01*
X156297315Y-84214215D02*
X156225887Y-84142786D01*
X156225887Y-84142786D02*
X156083029Y-84071358D01*
X156083029Y-84071358D02*
X155797315Y-84071358D01*
X155797315Y-84071358D02*
X155654458Y-84142786D01*
X155654458Y-84142786D02*
X155583029Y-84214215D01*
X155583029Y-84214215D02*
X155511601Y-84357072D01*
X157011600Y-84857072D02*
X157083029Y-84928501D01*
X157083029Y-84928501D02*
X157011600Y-84999929D01*
X157011600Y-84999929D02*
X156940172Y-84928501D01*
X156940172Y-84928501D02*
X157011600Y-84857072D01*
X157011600Y-84857072D02*
X157011600Y-84999929D01*
X158011601Y-83499929D02*
X158154458Y-83499929D01*
X158154458Y-83499929D02*
X158297315Y-83571358D01*
X158297315Y-83571358D02*
X158368744Y-83642786D01*
X158368744Y-83642786D02*
X158440172Y-83785643D01*
X158440172Y-83785643D02*
X158511601Y-84071358D01*
X158511601Y-84071358D02*
X158511601Y-84428501D01*
X158511601Y-84428501D02*
X158440172Y-84714215D01*
X158440172Y-84714215D02*
X158368744Y-84857072D01*
X158368744Y-84857072D02*
X158297315Y-84928501D01*
X158297315Y-84928501D02*
X158154458Y-84999929D01*
X158154458Y-84999929D02*
X158011601Y-84999929D01*
X158011601Y-84999929D02*
X157868744Y-84928501D01*
X157868744Y-84928501D02*
X157797315Y-84857072D01*
X157797315Y-84857072D02*
X157725886Y-84714215D01*
X157725886Y-84714215D02*
X157654458Y-84428501D01*
X157654458Y-84428501D02*
X157654458Y-84071358D01*
X157654458Y-84071358D02*
X157725886Y-83785643D01*
X157725886Y-83785643D02*
X157797315Y-83642786D01*
X157797315Y-83642786D02*
X157868744Y-83571358D01*
X157868744Y-83571358D02*
X158011601Y-83499929D01*
X159440172Y-83499929D02*
X159583029Y-83499929D01*
X159583029Y-83499929D02*
X159725886Y-83571358D01*
X159725886Y-83571358D02*
X159797315Y-83642786D01*
X159797315Y-83642786D02*
X159868743Y-83785643D01*
X159868743Y-83785643D02*
X159940172Y-84071358D01*
X159940172Y-84071358D02*
X159940172Y-84428501D01*
X159940172Y-84428501D02*
X159868743Y-84714215D01*
X159868743Y-84714215D02*
X159797315Y-84857072D01*
X159797315Y-84857072D02*
X159725886Y-84928501D01*
X159725886Y-84928501D02*
X159583029Y-84999929D01*
X159583029Y-84999929D02*
X159440172Y-84999929D01*
X159440172Y-84999929D02*
X159297315Y-84928501D01*
X159297315Y-84928501D02*
X159225886Y-84857072D01*
X159225886Y-84857072D02*
X159154457Y-84714215D01*
X159154457Y-84714215D02*
X159083029Y-84428501D01*
X159083029Y-84428501D02*
X159083029Y-84071358D01*
X159083029Y-84071358D02*
X159154457Y-83785643D01*
X159154457Y-83785643D02*
X159225886Y-83642786D01*
X159225886Y-83642786D02*
X159297315Y-83571358D01*
X159297315Y-83571358D02*
X159440172Y-83499929D01*
X160868743Y-83499929D02*
X161011600Y-83499929D01*
X161011600Y-83499929D02*
X161154457Y-83571358D01*
X161154457Y-83571358D02*
X161225886Y-83642786D01*
X161225886Y-83642786D02*
X161297314Y-83785643D01*
X161297314Y-83785643D02*
X161368743Y-84071358D01*
X161368743Y-84071358D02*
X161368743Y-84428501D01*
X161368743Y-84428501D02*
X161297314Y-84714215D01*
X161297314Y-84714215D02*
X161225886Y-84857072D01*
X161225886Y-84857072D02*
X161154457Y-84928501D01*
X161154457Y-84928501D02*
X161011600Y-84999929D01*
X161011600Y-84999929D02*
X160868743Y-84999929D01*
X160868743Y-84999929D02*
X160725886Y-84928501D01*
X160725886Y-84928501D02*
X160654457Y-84857072D01*
X160654457Y-84857072D02*
X160583028Y-84714215D01*
X160583028Y-84714215D02*
X160511600Y-84428501D01*
X160511600Y-84428501D02*
X160511600Y-84071358D01*
X160511600Y-84071358D02*
X160583028Y-83785643D01*
X160583028Y-83785643D02*
X160654457Y-83642786D01*
X160654457Y-83642786D02*
X160725886Y-83571358D01*
X160725886Y-83571358D02*
X160868743Y-83499929D01*
X162297314Y-83499929D02*
X162440171Y-83499929D01*
X162440171Y-83499929D02*
X162583028Y-83571358D01*
X162583028Y-83571358D02*
X162654457Y-83642786D01*
X162654457Y-83642786D02*
X162725885Y-83785643D01*
X162725885Y-83785643D02*
X162797314Y-84071358D01*
X162797314Y-84071358D02*
X162797314Y-84428501D01*
X162797314Y-84428501D02*
X162725885Y-84714215D01*
X162725885Y-84714215D02*
X162654457Y-84857072D01*
X162654457Y-84857072D02*
X162583028Y-84928501D01*
X162583028Y-84928501D02*
X162440171Y-84999929D01*
X162440171Y-84999929D02*
X162297314Y-84999929D01*
X162297314Y-84999929D02*
X162154457Y-84928501D01*
X162154457Y-84928501D02*
X162083028Y-84857072D01*
X162083028Y-84857072D02*
X162011599Y-84714215D01*
X162011599Y-84714215D02*
X161940171Y-84428501D01*
X161940171Y-84428501D02*
X161940171Y-84071358D01*
X161940171Y-84071358D02*
X162011599Y-83785643D01*
X162011599Y-83785643D02*
X162083028Y-83642786D01*
X162083028Y-83642786D02*
X162154457Y-83571358D01*
X162154457Y-83571358D02*
X162297314Y-83499929D01*
X164583027Y-84999929D02*
X164583027Y-83999929D01*
X164583027Y-84142786D02*
X164654456Y-84071358D01*
X164654456Y-84071358D02*
X164797313Y-83999929D01*
X164797313Y-83999929D02*
X165011599Y-83999929D01*
X165011599Y-83999929D02*
X165154456Y-84071358D01*
X165154456Y-84071358D02*
X165225885Y-84214215D01*
X165225885Y-84214215D02*
X165225885Y-84999929D01*
X165225885Y-84214215D02*
X165297313Y-84071358D01*
X165297313Y-84071358D02*
X165440170Y-83999929D01*
X165440170Y-83999929D02*
X165654456Y-83999929D01*
X165654456Y-83999929D02*
X165797313Y-84071358D01*
X165797313Y-84071358D02*
X165868742Y-84214215D01*
X165868742Y-84214215D02*
X165868742Y-84999929D01*
X166583027Y-84999929D02*
X166583027Y-83999929D01*
X166583027Y-84142786D02*
X166654456Y-84071358D01*
X166654456Y-84071358D02*
X166797313Y-83999929D01*
X166797313Y-83999929D02*
X167011599Y-83999929D01*
X167011599Y-83999929D02*
X167154456Y-84071358D01*
X167154456Y-84071358D02*
X167225885Y-84214215D01*
X167225885Y-84214215D02*
X167225885Y-84999929D01*
X167225885Y-84214215D02*
X167297313Y-84071358D01*
X167297313Y-84071358D02*
X167440170Y-83999929D01*
X167440170Y-83999929D02*
X167654456Y-83999929D01*
X167654456Y-83999929D02*
X167797313Y-84071358D01*
X167797313Y-84071358D02*
X167868742Y-84214215D01*
X167868742Y-84214215D02*
X167868742Y-84999929D01*
D11*
X169011600Y-94583600D02*
X169011600Y-85519581D01*
X153011600Y-94583600D02*
X153011600Y-85519581D01*
X169011600Y-86106001D02*
X153011600Y-86106001D01*
X169011600Y-86106001D02*
X153011600Y-86106001D01*
X169011600Y-86106001D02*
X167885096Y-86692422D01*
X169011600Y-86106001D02*
X167885096Y-85519580D01*
X153011600Y-86106001D02*
X154138104Y-85519580D01*
X153011600Y-86106001D02*
X154138104Y-86692422D01*
D12*
%TO.C,J1*%
X147596266Y-92230219D02*
X147596266Y-92944504D01*
X147596266Y-92944504D02*
X147548647Y-93087361D01*
X147548647Y-93087361D02*
X147453409Y-93182600D01*
X147453409Y-93182600D02*
X147310552Y-93230219D01*
X147310552Y-93230219D02*
X147215314Y-93230219D01*
X148596266Y-93230219D02*
X148024838Y-93230219D01*
X148310552Y-93230219D02*
X148310552Y-92230219D01*
X148310552Y-92230219D02*
X148215314Y-92373076D01*
X148215314Y-92373076D02*
X148120076Y-92468314D01*
X148120076Y-92468314D02*
X148024838Y-92515933D01*
%TO.C,J2*%
X173732866Y-92230219D02*
X173732866Y-92944504D01*
X173732866Y-92944504D02*
X173685247Y-93087361D01*
X173685247Y-93087361D02*
X173590009Y-93182600D01*
X173590009Y-93182600D02*
X173447152Y-93230219D01*
X173447152Y-93230219D02*
X173351914Y-93230219D01*
X174161438Y-92325457D02*
X174209057Y-92277838D01*
X174209057Y-92277838D02*
X174304295Y-92230219D01*
X174304295Y-92230219D02*
X174542390Y-92230219D01*
X174542390Y-92230219D02*
X174637628Y-92277838D01*
X174637628Y-92277838D02*
X174685247Y-92325457D01*
X174685247Y-92325457D02*
X174732866Y-92420695D01*
X174732866Y-92420695D02*
X174732866Y-92515933D01*
X174732866Y-92515933D02*
X174685247Y-92658790D01*
X174685247Y-92658790D02*
X174113819Y-93230219D01*
X174113819Y-93230219D02*
X174732866Y-93230219D01*
D13*
%TO.C,U1*%
X156058695Y-92539619D02*
X156058695Y-93349142D01*
X156058695Y-93349142D02*
X156106314Y-93444380D01*
X156106314Y-93444380D02*
X156153933Y-93492000D01*
X156153933Y-93492000D02*
X156249171Y-93539619D01*
X156249171Y-93539619D02*
X156439647Y-93539619D01*
X156439647Y-93539619D02*
X156534885Y-93492000D01*
X156534885Y-93492000D02*
X156582504Y-93444380D01*
X156582504Y-93444380D02*
X156630123Y-93349142D01*
X156630123Y-93349142D02*
X156630123Y-92539619D01*
X157630123Y-93539619D02*
X157058695Y-93539619D01*
X157344409Y-93539619D02*
X157344409Y-92539619D01*
X157344409Y-92539619D02*
X157249171Y-92682476D01*
X157249171Y-92682476D02*
X157153933Y-92777714D01*
X157153933Y-92777714D02*
X157058695Y-92825333D01*
X158823923Y-104384619D02*
X158490590Y-103908428D01*
X158252495Y-104384619D02*
X158252495Y-103384619D01*
X158252495Y-103384619D02*
X158633447Y-103384619D01*
X158633447Y-103384619D02*
X158728685Y-103432238D01*
X158728685Y-103432238D02*
X158776304Y-103479857D01*
X158776304Y-103479857D02*
X158823923Y-103575095D01*
X158823923Y-103575095D02*
X158823923Y-103717952D01*
X158823923Y-103717952D02*
X158776304Y-103813190D01*
X158776304Y-103813190D02*
X158728685Y-103860809D01*
X158728685Y-103860809D02*
X158633447Y-103908428D01*
X158633447Y-103908428D02*
X158252495Y-103908428D01*
X159585828Y-103860809D02*
X159252495Y-103860809D01*
X159252495Y-104384619D02*
X159252495Y-103384619D01*
X159252495Y-103384619D02*
X159728685Y-103384619D01*
X160109638Y-104384619D02*
X160109638Y-103384619D01*
X160109638Y-103384619D02*
X160442971Y-104098904D01*
X160442971Y-104098904D02*
X160776304Y-103384619D01*
X160776304Y-103384619D02*
X160776304Y-104384619D01*
X161204876Y-103479857D02*
X161252495Y-103432238D01*
X161252495Y-103432238D02*
X161347733Y-103384619D01*
X161347733Y-103384619D02*
X161585828Y-103384619D01*
X161585828Y-103384619D02*
X161681066Y-103432238D01*
X161681066Y-103432238D02*
X161728685Y-103479857D01*
X161728685Y-103479857D02*
X161776304Y-103575095D01*
X161776304Y-103575095D02*
X161776304Y-103670333D01*
X161776304Y-103670333D02*
X161728685Y-103813190D01*
X161728685Y-103813190D02*
X161157257Y-104384619D01*
X161157257Y-104384619D02*
X161776304Y-104384619D01*
X162157257Y-103479857D02*
X162204876Y-103432238D01*
X162204876Y-103432238D02*
X162300114Y-103384619D01*
X162300114Y-103384619D02*
X162538209Y-103384619D01*
X162538209Y-103384619D02*
X162633447Y-103432238D01*
X162633447Y-103432238D02*
X162681066Y-103479857D01*
X162681066Y-103479857D02*
X162728685Y-103575095D01*
X162728685Y-103575095D02*
X162728685Y-103670333D01*
X162728685Y-103670333D02*
X162681066Y-103813190D01*
X162681066Y-103813190D02*
X162109638Y-104384619D01*
X162109638Y-104384619D02*
X162728685Y-104384619D01*
X163490590Y-103860809D02*
X163633447Y-103908428D01*
X163633447Y-103908428D02*
X163681066Y-103956047D01*
X163681066Y-103956047D02*
X163728685Y-104051285D01*
X163728685Y-104051285D02*
X163728685Y-104194142D01*
X163728685Y-104194142D02*
X163681066Y-104289380D01*
X163681066Y-104289380D02*
X163633447Y-104337000D01*
X163633447Y-104337000D02*
X163538209Y-104384619D01*
X163538209Y-104384619D02*
X163157257Y-104384619D01*
X163157257Y-104384619D02*
X163157257Y-103384619D01*
X163157257Y-103384619D02*
X163490590Y-103384619D01*
X163490590Y-103384619D02*
X163585828Y-103432238D01*
X163585828Y-103432238D02*
X163633447Y-103479857D01*
X163633447Y-103479857D02*
X163681066Y-103575095D01*
X163681066Y-103575095D02*
X163681066Y-103670333D01*
X163681066Y-103670333D02*
X163633447Y-103765571D01*
X163633447Y-103765571D02*
X163585828Y-103813190D01*
X163585828Y-103813190D02*
X163490590Y-103860809D01*
X163490590Y-103860809D02*
X163157257Y-103860809D01*
D14*
%TO.C,J1*%
X146599600Y-93767600D02*
X147929600Y-93767600D01*
X146599600Y-95097600D02*
X146599600Y-93767600D01*
X146599600Y-96367600D02*
X146599600Y-114207600D01*
X146599600Y-96367600D02*
X149259600Y-96367600D01*
X146599600Y-114207600D02*
X149259600Y-114207600D01*
X149259600Y-96367600D02*
X149259600Y-114207600D01*
%TO.C,J2*%
X175396200Y-96367600D02*
X175396200Y-114207600D01*
X172736200Y-114207600D02*
X175396200Y-114207600D01*
X172736200Y-96367600D02*
X175396200Y-96367600D01*
X172736200Y-96367600D02*
X172736200Y-114207600D01*
X172736200Y-95097600D02*
X172736200Y-93767600D01*
X172736200Y-93767600D02*
X174066200Y-93767600D01*
D15*
%TO.C,U1*%
X154261600Y-92583600D02*
G75*
G03*
X154261600Y-92583600I-750000J0D01*
G01*
D13*
X153011600Y-95083600D02*
X169011600Y-95083600D01*
X169011600Y-95083600D02*
X169011600Y-111083600D01*
X169011600Y-111083600D02*
X153011600Y-111083600D01*
X153011600Y-111083600D02*
X153011600Y-95083600D01*
%TD*%
M02*
