%TF.GenerationSoftware,KiCad,Pcbnew,7.0.2*%
%TF.CreationDate,2024-04-09T17:47:28-07:00*%
%TF.ProjectId,RFM22BPCB,52464d32-3242-4504-9342-2e6b69636164,rev?*%
%TF.SameCoordinates,Original*%
%TF.FileFunction,Copper,L1,Top*%
%TF.FilePolarity,Positive*%
%FSLAX46Y46*%
G04 Gerber Fmt 4.6, Leading zero omitted, Abs format (unit mm)*
G04 Created by KiCad (PCBNEW 7.0.2) date 2024-04-09 17:47:28*
%MOMM*%
%LPD*%
G01*
G04 APERTURE LIST*
%ADD10C,0.250000*%
%TA.AperFunction,NonConductor*%
%ADD11C,0.250000*%
%TD*%
%TA.AperFunction,ComponentPad*%
%ADD12R,1.700000X1.700000*%
%TD*%
%TA.AperFunction,ComponentPad*%
%ADD13O,1.700000X1.700000*%
%TD*%
%TA.AperFunction,SMDPad,CuDef*%
%ADD14R,2.000000X1.300000*%
%TD*%
%TA.AperFunction,Conductor*%
%ADD15C,0.750000*%
%TD*%
%TA.AperFunction,Conductor*%
%ADD16C,0.250000*%
%TD*%
G04 APERTURE END LIST*
D10*
D11*
X178025371Y-113887828D02*
X177168228Y-113887828D01*
X177596799Y-113887828D02*
X177596799Y-112387828D01*
X177596799Y-112387828D02*
X177453942Y-112602114D01*
X177453942Y-112602114D02*
X177311085Y-112744971D01*
X177311085Y-112744971D02*
X177168228Y-112816400D01*
X179311085Y-112387828D02*
X179025370Y-112387828D01*
X179025370Y-112387828D02*
X178882513Y-112459257D01*
X178882513Y-112459257D02*
X178811085Y-112530685D01*
X178811085Y-112530685D02*
X178668227Y-112744971D01*
X178668227Y-112744971D02*
X178596799Y-113030685D01*
X178596799Y-113030685D02*
X178596799Y-113602114D01*
X178596799Y-113602114D02*
X178668227Y-113744971D01*
X178668227Y-113744971D02*
X178739656Y-113816400D01*
X178739656Y-113816400D02*
X178882513Y-113887828D01*
X178882513Y-113887828D02*
X179168227Y-113887828D01*
X179168227Y-113887828D02*
X179311085Y-113816400D01*
X179311085Y-113816400D02*
X179382513Y-113744971D01*
X179382513Y-113744971D02*
X179453942Y-113602114D01*
X179453942Y-113602114D02*
X179453942Y-113244971D01*
X179453942Y-113244971D02*
X179382513Y-113102114D01*
X179382513Y-113102114D02*
X179311085Y-113030685D01*
X179311085Y-113030685D02*
X179168227Y-112959257D01*
X179168227Y-112959257D02*
X178882513Y-112959257D01*
X178882513Y-112959257D02*
X178739656Y-113030685D01*
X178739656Y-113030685D02*
X178668227Y-113102114D01*
X178668227Y-113102114D02*
X178596799Y-113244971D01*
D10*
D11*
X178025371Y-103118228D02*
X177168228Y-103118228D01*
X177596799Y-103118228D02*
X177596799Y-101618228D01*
X177596799Y-101618228D02*
X177453942Y-101832514D01*
X177453942Y-101832514D02*
X177311085Y-101975371D01*
X177311085Y-101975371D02*
X177168228Y-102046800D01*
X178596799Y-101761085D02*
X178668227Y-101689657D01*
X178668227Y-101689657D02*
X178811085Y-101618228D01*
X178811085Y-101618228D02*
X179168227Y-101618228D01*
X179168227Y-101618228D02*
X179311085Y-101689657D01*
X179311085Y-101689657D02*
X179382513Y-101761085D01*
X179382513Y-101761085D02*
X179453942Y-101903942D01*
X179453942Y-101903942D02*
X179453942Y-102046800D01*
X179453942Y-102046800D02*
X179382513Y-102261085D01*
X179382513Y-102261085D02*
X178525370Y-103118228D01*
X178525370Y-103118228D02*
X179453942Y-103118228D01*
D10*
D11*
X143598828Y-112979885D02*
X143455971Y-112908457D01*
X143455971Y-112908457D02*
X143384542Y-112837028D01*
X143384542Y-112837028D02*
X143313114Y-112694171D01*
X143313114Y-112694171D02*
X143313114Y-112622742D01*
X143313114Y-112622742D02*
X143384542Y-112479885D01*
X143384542Y-112479885D02*
X143455971Y-112408457D01*
X143455971Y-112408457D02*
X143598828Y-112337028D01*
X143598828Y-112337028D02*
X143884542Y-112337028D01*
X143884542Y-112337028D02*
X144027400Y-112408457D01*
X144027400Y-112408457D02*
X144098828Y-112479885D01*
X144098828Y-112479885D02*
X144170257Y-112622742D01*
X144170257Y-112622742D02*
X144170257Y-112694171D01*
X144170257Y-112694171D02*
X144098828Y-112837028D01*
X144098828Y-112837028D02*
X144027400Y-112908457D01*
X144027400Y-112908457D02*
X143884542Y-112979885D01*
X143884542Y-112979885D02*
X143598828Y-112979885D01*
X143598828Y-112979885D02*
X143455971Y-113051314D01*
X143455971Y-113051314D02*
X143384542Y-113122742D01*
X143384542Y-113122742D02*
X143313114Y-113265600D01*
X143313114Y-113265600D02*
X143313114Y-113551314D01*
X143313114Y-113551314D02*
X143384542Y-113694171D01*
X143384542Y-113694171D02*
X143455971Y-113765600D01*
X143455971Y-113765600D02*
X143598828Y-113837028D01*
X143598828Y-113837028D02*
X143884542Y-113837028D01*
X143884542Y-113837028D02*
X144027400Y-113765600D01*
X144027400Y-113765600D02*
X144098828Y-113694171D01*
X144098828Y-113694171D02*
X144170257Y-113551314D01*
X144170257Y-113551314D02*
X144170257Y-113265600D01*
X144170257Y-113265600D02*
X144098828Y-113122742D01*
X144098828Y-113122742D02*
X144027400Y-113051314D01*
X144027400Y-113051314D02*
X143884542Y-112979885D01*
D10*
D11*
X144170257Y-95676028D02*
X143313114Y-95676028D01*
X143741685Y-95676028D02*
X143741685Y-94176028D01*
X143741685Y-94176028D02*
X143598828Y-94390314D01*
X143598828Y-94390314D02*
X143455971Y-94533171D01*
X143455971Y-94533171D02*
X143313114Y-94604600D01*
D10*
D11*
X178025371Y-95726828D02*
X178311085Y-95726828D01*
X178311085Y-95726828D02*
X178453942Y-95655400D01*
X178453942Y-95655400D02*
X178525371Y-95583971D01*
X178525371Y-95583971D02*
X178668228Y-95369685D01*
X178668228Y-95369685D02*
X178739657Y-95083971D01*
X178739657Y-95083971D02*
X178739657Y-94512542D01*
X178739657Y-94512542D02*
X178668228Y-94369685D01*
X178668228Y-94369685D02*
X178596800Y-94298257D01*
X178596800Y-94298257D02*
X178453942Y-94226828D01*
X178453942Y-94226828D02*
X178168228Y-94226828D01*
X178168228Y-94226828D02*
X178025371Y-94298257D01*
X178025371Y-94298257D02*
X177953942Y-94369685D01*
X177953942Y-94369685D02*
X177882514Y-94512542D01*
X177882514Y-94512542D02*
X177882514Y-94869685D01*
X177882514Y-94869685D02*
X177953942Y-95012542D01*
X177953942Y-95012542D02*
X178025371Y-95083971D01*
X178025371Y-95083971D02*
X178168228Y-95155400D01*
X178168228Y-95155400D02*
X178453942Y-95155400D01*
X178453942Y-95155400D02*
X178596800Y-95083971D01*
X178596800Y-95083971D02*
X178668228Y-95012542D01*
X178668228Y-95012542D02*
X178739657Y-94869685D01*
D10*
D11*
X144027400Y-102397628D02*
X144027400Y-103397628D01*
X143670257Y-101826200D02*
X143313114Y-102897628D01*
X143313114Y-102897628D02*
X144241685Y-102897628D01*
D12*
%TO.P,J1,1,Pin_1*%
%TO.N,/ANT*%
X147929600Y-95097600D03*
D13*
%TO.P,J1,2,Pin_2*%
%TO.N,/GND*%
X147929600Y-97637600D03*
%TO.P,J1,3,Pin_3*%
%TO.N,/RX_ANT*%
X147929600Y-100177600D03*
%TO.P,J1,4,Pin_4*%
%TO.N,/TX_ANT*%
X147929600Y-102717600D03*
%TO.P,J1,5,Pin_5*%
%TO.N,/VCC*%
X147929600Y-105257600D03*
%TO.P,J1,6,Pin_6*%
%TO.N,/GPIO_0*%
X147929600Y-107797600D03*
%TO.P,J1,7,Pin_7*%
%TO.N,/GPIO_1*%
X147929600Y-110337600D03*
%TO.P,J1,8,Pin_8*%
%TO.N,/GPIO_2*%
X147929600Y-112877600D03*
%TD*%
%TO.P,J2,8,Pin_8*%
%TO.N,/GND*%
X174066200Y-112877600D03*
%TO.P,J2,7,Pin_7*%
%TO.N,/SDO*%
X174066200Y-110337600D03*
%TO.P,J2,6,Pin_6*%
%TO.N,/SDI*%
X174066200Y-107797600D03*
%TO.P,J2,5,Pin_5*%
%TO.N,/SCK*%
X174066200Y-105257600D03*
%TO.P,J2,4,Pin_4*%
%TO.N,/NSEL*%
X174066200Y-102717600D03*
%TO.P,J2,3,Pin_3*%
%TO.N,/NIRQ*%
X174066200Y-100177600D03*
%TO.P,J2,2,Pin_2*%
%TO.N,/SDN*%
X174066200Y-97637600D03*
D12*
%TO.P,J2,1,Pin_1*%
%TO.N,/GND*%
X174066200Y-95097600D03*
%TD*%
D14*
%TO.P,U1,16,GND*%
%TO.N,/GND*%
X169011600Y-110083600D03*
%TO.P,U1,15,SDO*%
%TO.N,/SDO*%
X169011600Y-108083600D03*
%TO.P,U1,14,SDI*%
%TO.N,/SDI*%
X169011600Y-106083600D03*
%TO.P,U1,13,SCK_*%
%TO.N,/SCK*%
X169011600Y-104083600D03*
%TO.P,U1,12,NSEL*%
%TO.N,/NSEL*%
X169011600Y-102083600D03*
%TO.P,U1,11,NIRQ*%
%TO.N,/NIRQ*%
X169011600Y-100083600D03*
%TO.P,U1,10,SDN*%
%TO.N,/SDN*%
X169011600Y-98083600D03*
%TO.P,U1,9,GND*%
%TO.N,/GND*%
X169011600Y-96083600D03*
%TO.P,U1,8,GPIO_2*%
%TO.N,/GPIO_2*%
X153011600Y-110083600D03*
%TO.P,U1,7,GPIO_1*%
%TO.N,/GPIO_1*%
X153011600Y-108083600D03*
%TO.P,U1,6,GPIO_0*%
%TO.N,/GPIO_0*%
X153011600Y-106083600D03*
%TO.P,U1,5,VCC*%
%TO.N,/VCC*%
X153011600Y-104083600D03*
%TO.P,U1,4,TX_ANT*%
%TO.N,/TX_ANT*%
X153011600Y-102083600D03*
%TO.P,U1,3,RX_ANT*%
%TO.N,/RX_ANT*%
X153011600Y-100083600D03*
%TO.P,U1,2,GND*%
%TO.N,/GND*%
X153011600Y-98083600D03*
%TO.P,U1,1,ANT*%
%TO.N,/ANT*%
X153011600Y-96083600D03*
%TD*%
D15*
%TO.N,/SDO*%
X171812200Y-108083600D02*
X169011600Y-108083600D01*
X174066200Y-110337600D02*
X171812200Y-108083600D01*
%TO.N,/SDI*%
X172352200Y-106083600D02*
X169011600Y-106083600D01*
X174066200Y-107797600D02*
X172352200Y-106083600D01*
%TO.N,/SCK*%
X174066200Y-105257600D02*
X172892200Y-104083600D01*
X172892200Y-104083600D02*
X169011600Y-104083600D01*
%TO.N,/NSEL*%
X174066200Y-102717600D02*
X169645600Y-102717600D01*
X169645600Y-102717600D02*
X169011600Y-102083600D01*
D16*
%TO.N,/NIRQ*%
X169105600Y-100177600D02*
X169011600Y-100083600D01*
D15*
X174066200Y-100177600D02*
X169105600Y-100177600D01*
%TO.N,/SDN*%
X169457600Y-97637600D02*
X169011600Y-98083600D01*
X174066200Y-97637600D02*
X169457600Y-97637600D01*
%TO.N,/GPIO_2*%
X150217600Y-112877600D02*
X153011600Y-110083600D01*
X147929600Y-112877600D02*
X150217600Y-112877600D01*
%TO.N,/GPIO_1*%
X150183600Y-108083600D02*
X153011600Y-108083600D01*
X147929600Y-110337600D02*
X150183600Y-108083600D01*
%TO.N,/GPIO_0*%
X149643600Y-106083600D02*
X153011600Y-106083600D01*
X147929600Y-107797600D02*
X149643600Y-106083600D01*
%TO.N,/VCC*%
X149103600Y-104083600D02*
X153011600Y-104083600D01*
X147929600Y-105257600D02*
X149103600Y-104083600D01*
%TO.N,/TX_ANT*%
X152377600Y-102717600D02*
X153011600Y-102083600D01*
X147929600Y-102717600D02*
X152377600Y-102717600D01*
D16*
%TO.N,/RX_ANT*%
X152917600Y-100177600D02*
X153011600Y-100083600D01*
D15*
X147929600Y-100177600D02*
X152917600Y-100177600D01*
%TO.N,/ANT*%
X152025600Y-95097600D02*
X153011600Y-96083600D01*
X147929600Y-95097600D02*
X152025600Y-95097600D01*
D16*
%TO.N,/RX_ANT*%
X152750000Y-99822000D02*
X153011600Y-100083600D01*
%TO.N,/VCC*%
X153006000Y-104089200D02*
X153011600Y-104083600D01*
%TD*%
M02*
