%TF.GenerationSoftware,KiCad,Pcbnew,7.0.2*%
%TF.CreationDate,2024-04-09T17:47:28-07:00*%
%TF.ProjectId,RFM22BPCB,52464d32-3242-4504-9342-2e6b69636164,rev?*%
%TF.SameCoordinates,Original*%
%TF.FileFunction,Profile,NP*%
%FSLAX46Y46*%
G04 Gerber Fmt 4.6, Leading zero omitted, Abs format (unit mm)*
G04 Created by KiCad (PCBNEW 7.0.2) date 2024-04-09 17:47:28*
%MOMM*%
%LPD*%
G01*
G04 APERTURE LIST*
%TA.AperFunction,Profile*%
%ADD10C,0.100000*%
%TD*%
%ADD11C,0.150000*%
G04 APERTURE END LIST*
D10*
X141503400Y-92456000D02*
X180746400Y-92456000D01*
X180746400Y-115049300D01*
X141503400Y-115049300D01*
X141503400Y-92456000D01*
D11*
X135366095Y-121239809D02*
X135699428Y-121239809D01*
X135842285Y-121763619D02*
X135366095Y-121763619D01*
X135366095Y-121763619D02*
X135366095Y-120763619D01*
X135366095Y-120763619D02*
X135842285Y-120763619D01*
X136270857Y-121763619D02*
X136270857Y-120763619D01*
X136270857Y-120763619D02*
X136842285Y-121763619D01*
X136842285Y-121763619D02*
X136842285Y-120763619D01*
X137270857Y-121716000D02*
X137413714Y-121763619D01*
X137413714Y-121763619D02*
X137651809Y-121763619D01*
X137651809Y-121763619D02*
X137747047Y-121716000D01*
X137747047Y-121716000D02*
X137794666Y-121668380D01*
X137794666Y-121668380D02*
X137842285Y-121573142D01*
X137842285Y-121573142D02*
X137842285Y-121477904D01*
X137842285Y-121477904D02*
X137794666Y-121382666D01*
X137794666Y-121382666D02*
X137747047Y-121335047D01*
X137747047Y-121335047D02*
X137651809Y-121287428D01*
X137651809Y-121287428D02*
X137461333Y-121239809D01*
X137461333Y-121239809D02*
X137366095Y-121192190D01*
X137366095Y-121192190D02*
X137318476Y-121144571D01*
X137318476Y-121144571D02*
X137270857Y-121049333D01*
X137270857Y-121049333D02*
X137270857Y-120954095D01*
X137270857Y-120954095D02*
X137318476Y-120858857D01*
X137318476Y-120858857D02*
X137366095Y-120811238D01*
X137366095Y-120811238D02*
X137461333Y-120763619D01*
X137461333Y-120763619D02*
X137699428Y-120763619D01*
X137699428Y-120763619D02*
X137842285Y-120811238D01*
X138270857Y-120763619D02*
X138270857Y-121573142D01*
X138270857Y-121573142D02*
X138318476Y-121668380D01*
X138318476Y-121668380D02*
X138366095Y-121716000D01*
X138366095Y-121716000D02*
X138461333Y-121763619D01*
X138461333Y-121763619D02*
X138651809Y-121763619D01*
X138651809Y-121763619D02*
X138747047Y-121716000D01*
X138747047Y-121716000D02*
X138794666Y-121668380D01*
X138794666Y-121668380D02*
X138842285Y-121573142D01*
X138842285Y-121573142D02*
X138842285Y-120763619D01*
X139889904Y-121763619D02*
X139556571Y-121287428D01*
X139318476Y-121763619D02*
X139318476Y-120763619D01*
X139318476Y-120763619D02*
X139699428Y-120763619D01*
X139699428Y-120763619D02*
X139794666Y-120811238D01*
X139794666Y-120811238D02*
X139842285Y-120858857D01*
X139842285Y-120858857D02*
X139889904Y-120954095D01*
X139889904Y-120954095D02*
X139889904Y-121096952D01*
X139889904Y-121096952D02*
X139842285Y-121192190D01*
X139842285Y-121192190D02*
X139794666Y-121239809D01*
X139794666Y-121239809D02*
X139699428Y-121287428D01*
X139699428Y-121287428D02*
X139318476Y-121287428D01*
X140318476Y-121239809D02*
X140651809Y-121239809D01*
X140794666Y-121763619D02*
X140318476Y-121763619D01*
X140318476Y-121763619D02*
X140318476Y-120763619D01*
X140318476Y-120763619D02*
X140794666Y-120763619D01*
X142556571Y-121668380D02*
X142508952Y-121716000D01*
X142508952Y-121716000D02*
X142366095Y-121763619D01*
X142366095Y-121763619D02*
X142270857Y-121763619D01*
X142270857Y-121763619D02*
X142128000Y-121716000D01*
X142128000Y-121716000D02*
X142032762Y-121620761D01*
X142032762Y-121620761D02*
X141985143Y-121525523D01*
X141985143Y-121525523D02*
X141937524Y-121335047D01*
X141937524Y-121335047D02*
X141937524Y-121192190D01*
X141937524Y-121192190D02*
X141985143Y-121001714D01*
X141985143Y-121001714D02*
X142032762Y-120906476D01*
X142032762Y-120906476D02*
X142128000Y-120811238D01*
X142128000Y-120811238D02*
X142270857Y-120763619D01*
X142270857Y-120763619D02*
X142366095Y-120763619D01*
X142366095Y-120763619D02*
X142508952Y-120811238D01*
X142508952Y-120811238D02*
X142556571Y-120858857D01*
X142937524Y-121477904D02*
X143413714Y-121477904D01*
X142842286Y-121763619D02*
X143175619Y-120763619D01*
X143175619Y-120763619D02*
X143508952Y-121763619D01*
X143842286Y-121763619D02*
X143842286Y-120763619D01*
X143842286Y-120763619D02*
X144413714Y-121763619D01*
X144413714Y-121763619D02*
X144413714Y-120763619D01*
X145651810Y-120763619D02*
X145651810Y-121573142D01*
X145651810Y-121573142D02*
X145699429Y-121668380D01*
X145699429Y-121668380D02*
X145747048Y-121716000D01*
X145747048Y-121716000D02*
X145842286Y-121763619D01*
X145842286Y-121763619D02*
X146032762Y-121763619D01*
X146032762Y-121763619D02*
X146128000Y-121716000D01*
X146128000Y-121716000D02*
X146175619Y-121668380D01*
X146175619Y-121668380D02*
X146223238Y-121573142D01*
X146223238Y-121573142D02*
X146223238Y-120763619D01*
X146651810Y-121716000D02*
X146794667Y-121763619D01*
X146794667Y-121763619D02*
X147032762Y-121763619D01*
X147032762Y-121763619D02*
X147128000Y-121716000D01*
X147128000Y-121716000D02*
X147175619Y-121668380D01*
X147175619Y-121668380D02*
X147223238Y-121573142D01*
X147223238Y-121573142D02*
X147223238Y-121477904D01*
X147223238Y-121477904D02*
X147175619Y-121382666D01*
X147175619Y-121382666D02*
X147128000Y-121335047D01*
X147128000Y-121335047D02*
X147032762Y-121287428D01*
X147032762Y-121287428D02*
X146842286Y-121239809D01*
X146842286Y-121239809D02*
X146747048Y-121192190D01*
X146747048Y-121192190D02*
X146699429Y-121144571D01*
X146699429Y-121144571D02*
X146651810Y-121049333D01*
X146651810Y-121049333D02*
X146651810Y-120954095D01*
X146651810Y-120954095D02*
X146699429Y-120858857D01*
X146699429Y-120858857D02*
X146747048Y-120811238D01*
X146747048Y-120811238D02*
X146842286Y-120763619D01*
X146842286Y-120763619D02*
X147080381Y-120763619D01*
X147080381Y-120763619D02*
X147223238Y-120811238D01*
X147651810Y-121239809D02*
X147985143Y-121239809D01*
X148128000Y-121763619D02*
X147651810Y-121763619D01*
X147651810Y-121763619D02*
X147651810Y-120763619D01*
X147651810Y-120763619D02*
X148128000Y-120763619D01*
X149651810Y-121239809D02*
X149794667Y-121287428D01*
X149794667Y-121287428D02*
X149842286Y-121335047D01*
X149842286Y-121335047D02*
X149889905Y-121430285D01*
X149889905Y-121430285D02*
X149889905Y-121573142D01*
X149889905Y-121573142D02*
X149842286Y-121668380D01*
X149842286Y-121668380D02*
X149794667Y-121716000D01*
X149794667Y-121716000D02*
X149699429Y-121763619D01*
X149699429Y-121763619D02*
X149318477Y-121763619D01*
X149318477Y-121763619D02*
X149318477Y-120763619D01*
X149318477Y-120763619D02*
X149651810Y-120763619D01*
X149651810Y-120763619D02*
X149747048Y-120811238D01*
X149747048Y-120811238D02*
X149794667Y-120858857D01*
X149794667Y-120858857D02*
X149842286Y-120954095D01*
X149842286Y-120954095D02*
X149842286Y-121049333D01*
X149842286Y-121049333D02*
X149794667Y-121144571D01*
X149794667Y-121144571D02*
X149747048Y-121192190D01*
X149747048Y-121192190D02*
X149651810Y-121239809D01*
X149651810Y-121239809D02*
X149318477Y-121239809D01*
X150889905Y-121763619D02*
X150556572Y-121287428D01*
X150318477Y-121763619D02*
X150318477Y-120763619D01*
X150318477Y-120763619D02*
X150699429Y-120763619D01*
X150699429Y-120763619D02*
X150794667Y-120811238D01*
X150794667Y-120811238D02*
X150842286Y-120858857D01*
X150842286Y-120858857D02*
X150889905Y-120954095D01*
X150889905Y-120954095D02*
X150889905Y-121096952D01*
X150889905Y-121096952D02*
X150842286Y-121192190D01*
X150842286Y-121192190D02*
X150794667Y-121239809D01*
X150794667Y-121239809D02*
X150699429Y-121287428D01*
X150699429Y-121287428D02*
X150318477Y-121287428D01*
X151318477Y-121239809D02*
X151651810Y-121239809D01*
X151794667Y-121763619D02*
X151318477Y-121763619D01*
X151318477Y-121763619D02*
X151318477Y-120763619D01*
X151318477Y-120763619D02*
X151794667Y-120763619D01*
X152175620Y-121477904D02*
X152651810Y-121477904D01*
X152080382Y-121763619D02*
X152413715Y-120763619D01*
X152413715Y-120763619D02*
X152747048Y-121763619D01*
X153080382Y-121763619D02*
X153080382Y-120763619D01*
X153080382Y-120763619D02*
X153318477Y-120763619D01*
X153318477Y-120763619D02*
X153461334Y-120811238D01*
X153461334Y-120811238D02*
X153556572Y-120906476D01*
X153556572Y-120906476D02*
X153604191Y-121001714D01*
X153604191Y-121001714D02*
X153651810Y-121192190D01*
X153651810Y-121192190D02*
X153651810Y-121335047D01*
X153651810Y-121335047D02*
X153604191Y-121525523D01*
X153604191Y-121525523D02*
X153556572Y-121620761D01*
X153556572Y-121620761D02*
X153461334Y-121716000D01*
X153461334Y-121716000D02*
X153318477Y-121763619D01*
X153318477Y-121763619D02*
X153080382Y-121763619D01*
X154413715Y-121239809D02*
X154556572Y-121287428D01*
X154556572Y-121287428D02*
X154604191Y-121335047D01*
X154604191Y-121335047D02*
X154651810Y-121430285D01*
X154651810Y-121430285D02*
X154651810Y-121573142D01*
X154651810Y-121573142D02*
X154604191Y-121668380D01*
X154604191Y-121668380D02*
X154556572Y-121716000D01*
X154556572Y-121716000D02*
X154461334Y-121763619D01*
X154461334Y-121763619D02*
X154080382Y-121763619D01*
X154080382Y-121763619D02*
X154080382Y-120763619D01*
X154080382Y-120763619D02*
X154413715Y-120763619D01*
X154413715Y-120763619D02*
X154508953Y-120811238D01*
X154508953Y-120811238D02*
X154556572Y-120858857D01*
X154556572Y-120858857D02*
X154604191Y-120954095D01*
X154604191Y-120954095D02*
X154604191Y-121049333D01*
X154604191Y-121049333D02*
X154556572Y-121144571D01*
X154556572Y-121144571D02*
X154508953Y-121192190D01*
X154508953Y-121192190D02*
X154413715Y-121239809D01*
X154413715Y-121239809D02*
X154080382Y-121239809D01*
X155270858Y-120763619D02*
X155461334Y-120763619D01*
X155461334Y-120763619D02*
X155556572Y-120811238D01*
X155556572Y-120811238D02*
X155651810Y-120906476D01*
X155651810Y-120906476D02*
X155699429Y-121096952D01*
X155699429Y-121096952D02*
X155699429Y-121430285D01*
X155699429Y-121430285D02*
X155651810Y-121620761D01*
X155651810Y-121620761D02*
X155556572Y-121716000D01*
X155556572Y-121716000D02*
X155461334Y-121763619D01*
X155461334Y-121763619D02*
X155270858Y-121763619D01*
X155270858Y-121763619D02*
X155175620Y-121716000D01*
X155175620Y-121716000D02*
X155080382Y-121620761D01*
X155080382Y-121620761D02*
X155032763Y-121430285D01*
X155032763Y-121430285D02*
X155032763Y-121096952D01*
X155032763Y-121096952D02*
X155080382Y-120906476D01*
X155080382Y-120906476D02*
X155175620Y-120811238D01*
X155175620Y-120811238D02*
X155270858Y-120763619D01*
X156080382Y-121477904D02*
X156556572Y-121477904D01*
X155985144Y-121763619D02*
X156318477Y-120763619D01*
X156318477Y-120763619D02*
X156651810Y-121763619D01*
X157556572Y-121763619D02*
X157223239Y-121287428D01*
X156985144Y-121763619D02*
X156985144Y-120763619D01*
X156985144Y-120763619D02*
X157366096Y-120763619D01*
X157366096Y-120763619D02*
X157461334Y-120811238D01*
X157461334Y-120811238D02*
X157508953Y-120858857D01*
X157508953Y-120858857D02*
X157556572Y-120954095D01*
X157556572Y-120954095D02*
X157556572Y-121096952D01*
X157556572Y-121096952D02*
X157508953Y-121192190D01*
X157508953Y-121192190D02*
X157461334Y-121239809D01*
X157461334Y-121239809D02*
X157366096Y-121287428D01*
X157366096Y-121287428D02*
X156985144Y-121287428D01*
X157985144Y-121763619D02*
X157985144Y-120763619D01*
X157985144Y-120763619D02*
X158223239Y-120763619D01*
X158223239Y-120763619D02*
X158366096Y-120811238D01*
X158366096Y-120811238D02*
X158461334Y-120906476D01*
X158461334Y-120906476D02*
X158508953Y-121001714D01*
X158508953Y-121001714D02*
X158556572Y-121192190D01*
X158556572Y-121192190D02*
X158556572Y-121335047D01*
X158556572Y-121335047D02*
X158508953Y-121525523D01*
X158508953Y-121525523D02*
X158461334Y-121620761D01*
X158461334Y-121620761D02*
X158366096Y-121716000D01*
X158366096Y-121716000D02*
X158223239Y-121763619D01*
X158223239Y-121763619D02*
X157985144Y-121763619D01*
X159747049Y-121763619D02*
X159747049Y-120763619D01*
X159747049Y-120763619D02*
X160128001Y-120763619D01*
X160128001Y-120763619D02*
X160223239Y-120811238D01*
X160223239Y-120811238D02*
X160270858Y-120858857D01*
X160270858Y-120858857D02*
X160318477Y-120954095D01*
X160318477Y-120954095D02*
X160318477Y-121096952D01*
X160318477Y-121096952D02*
X160270858Y-121192190D01*
X160270858Y-121192190D02*
X160223239Y-121239809D01*
X160223239Y-121239809D02*
X160128001Y-121287428D01*
X160128001Y-121287428D02*
X159747049Y-121287428D01*
X160747049Y-121763619D02*
X160747049Y-120763619D01*
X161080382Y-120763619D02*
X161651810Y-120763619D01*
X161366096Y-121763619D02*
X161366096Y-120763619D01*
X162556572Y-121668380D02*
X162508953Y-121716000D01*
X162508953Y-121716000D02*
X162366096Y-121763619D01*
X162366096Y-121763619D02*
X162270858Y-121763619D01*
X162270858Y-121763619D02*
X162128001Y-121716000D01*
X162128001Y-121716000D02*
X162032763Y-121620761D01*
X162032763Y-121620761D02*
X161985144Y-121525523D01*
X161985144Y-121525523D02*
X161937525Y-121335047D01*
X161937525Y-121335047D02*
X161937525Y-121192190D01*
X161937525Y-121192190D02*
X161985144Y-121001714D01*
X161985144Y-121001714D02*
X162032763Y-120906476D01*
X162032763Y-120906476D02*
X162128001Y-120811238D01*
X162128001Y-120811238D02*
X162270858Y-120763619D01*
X162270858Y-120763619D02*
X162366096Y-120763619D01*
X162366096Y-120763619D02*
X162508953Y-120811238D01*
X162508953Y-120811238D02*
X162556572Y-120858857D01*
X162985144Y-121763619D02*
X162985144Y-120763619D01*
X162985144Y-121239809D02*
X163556572Y-121239809D01*
X163556572Y-121763619D02*
X163556572Y-120763619D01*
X164747049Y-121716000D02*
X164889906Y-121763619D01*
X164889906Y-121763619D02*
X165128001Y-121763619D01*
X165128001Y-121763619D02*
X165223239Y-121716000D01*
X165223239Y-121716000D02*
X165270858Y-121668380D01*
X165270858Y-121668380D02*
X165318477Y-121573142D01*
X165318477Y-121573142D02*
X165318477Y-121477904D01*
X165318477Y-121477904D02*
X165270858Y-121382666D01*
X165270858Y-121382666D02*
X165223239Y-121335047D01*
X165223239Y-121335047D02*
X165128001Y-121287428D01*
X165128001Y-121287428D02*
X164937525Y-121239809D01*
X164937525Y-121239809D02*
X164842287Y-121192190D01*
X164842287Y-121192190D02*
X164794668Y-121144571D01*
X164794668Y-121144571D02*
X164747049Y-121049333D01*
X164747049Y-121049333D02*
X164747049Y-120954095D01*
X164747049Y-120954095D02*
X164794668Y-120858857D01*
X164794668Y-120858857D02*
X164842287Y-120811238D01*
X164842287Y-120811238D02*
X164937525Y-120763619D01*
X164937525Y-120763619D02*
X165175620Y-120763619D01*
X165175620Y-120763619D02*
X165318477Y-120811238D01*
X165747049Y-121763619D02*
X165747049Y-120763619D01*
X166128001Y-120763619D02*
X166794667Y-120763619D01*
X166794667Y-120763619D02*
X166128001Y-121763619D01*
X166128001Y-121763619D02*
X166794667Y-121763619D01*
X167175620Y-121239809D02*
X167508953Y-121239809D01*
X167651810Y-121763619D02*
X167175620Y-121763619D01*
X167175620Y-121763619D02*
X167175620Y-120763619D01*
X167175620Y-120763619D02*
X167651810Y-120763619D01*
X168842287Y-121763619D02*
X168842287Y-120763619D01*
X168842287Y-120763619D02*
X169223239Y-120763619D01*
X169223239Y-120763619D02*
X169318477Y-120811238D01*
X169318477Y-120811238D02*
X169366096Y-120858857D01*
X169366096Y-120858857D02*
X169413715Y-120954095D01*
X169413715Y-120954095D02*
X169413715Y-121096952D01*
X169413715Y-121096952D02*
X169366096Y-121192190D01*
X169366096Y-121192190D02*
X169318477Y-121239809D01*
X169318477Y-121239809D02*
X169223239Y-121287428D01*
X169223239Y-121287428D02*
X168842287Y-121287428D01*
X169842287Y-121763619D02*
X169842287Y-120763619D01*
X170318477Y-121763619D02*
X170318477Y-120763619D01*
X170318477Y-120763619D02*
X170889905Y-121763619D01*
X170889905Y-121763619D02*
X170889905Y-120763619D01*
X172128001Y-121763619D02*
X172128001Y-120763619D01*
X172128001Y-120763619D02*
X172366096Y-120763619D01*
X172366096Y-120763619D02*
X172508953Y-120811238D01*
X172508953Y-120811238D02*
X172604191Y-120906476D01*
X172604191Y-120906476D02*
X172651810Y-121001714D01*
X172651810Y-121001714D02*
X172699429Y-121192190D01*
X172699429Y-121192190D02*
X172699429Y-121335047D01*
X172699429Y-121335047D02*
X172651810Y-121525523D01*
X172651810Y-121525523D02*
X172604191Y-121620761D01*
X172604191Y-121620761D02*
X172508953Y-121716000D01*
X172508953Y-121716000D02*
X172366096Y-121763619D01*
X172366096Y-121763619D02*
X172128001Y-121763619D01*
X173128001Y-121763619D02*
X173128001Y-120763619D01*
X173556572Y-121716000D02*
X173699429Y-121763619D01*
X173699429Y-121763619D02*
X173937524Y-121763619D01*
X173937524Y-121763619D02*
X174032762Y-121716000D01*
X174032762Y-121716000D02*
X174080381Y-121668380D01*
X174080381Y-121668380D02*
X174128000Y-121573142D01*
X174128000Y-121573142D02*
X174128000Y-121477904D01*
X174128000Y-121477904D02*
X174080381Y-121382666D01*
X174080381Y-121382666D02*
X174032762Y-121335047D01*
X174032762Y-121335047D02*
X173937524Y-121287428D01*
X173937524Y-121287428D02*
X173747048Y-121239809D01*
X173747048Y-121239809D02*
X173651810Y-121192190D01*
X173651810Y-121192190D02*
X173604191Y-121144571D01*
X173604191Y-121144571D02*
X173556572Y-121049333D01*
X173556572Y-121049333D02*
X173556572Y-120954095D01*
X173556572Y-120954095D02*
X173604191Y-120858857D01*
X173604191Y-120858857D02*
X173651810Y-120811238D01*
X173651810Y-120811238D02*
X173747048Y-120763619D01*
X173747048Y-120763619D02*
X173985143Y-120763619D01*
X173985143Y-120763619D02*
X174128000Y-120811238D01*
X174413715Y-120763619D02*
X174985143Y-120763619D01*
X174699429Y-121763619D02*
X174699429Y-120763619D01*
X175270858Y-121477904D02*
X175747048Y-121477904D01*
X175175620Y-121763619D02*
X175508953Y-120763619D01*
X175508953Y-120763619D02*
X175842286Y-121763619D01*
X176175620Y-121763619D02*
X176175620Y-120763619D01*
X176175620Y-120763619D02*
X176747048Y-121763619D01*
X176747048Y-121763619D02*
X176747048Y-120763619D01*
X177794667Y-121668380D02*
X177747048Y-121716000D01*
X177747048Y-121716000D02*
X177604191Y-121763619D01*
X177604191Y-121763619D02*
X177508953Y-121763619D01*
X177508953Y-121763619D02*
X177366096Y-121716000D01*
X177366096Y-121716000D02*
X177270858Y-121620761D01*
X177270858Y-121620761D02*
X177223239Y-121525523D01*
X177223239Y-121525523D02*
X177175620Y-121335047D01*
X177175620Y-121335047D02*
X177175620Y-121192190D01*
X177175620Y-121192190D02*
X177223239Y-121001714D01*
X177223239Y-121001714D02*
X177270858Y-120906476D01*
X177270858Y-120906476D02*
X177366096Y-120811238D01*
X177366096Y-120811238D02*
X177508953Y-120763619D01*
X177508953Y-120763619D02*
X177604191Y-120763619D01*
X177604191Y-120763619D02*
X177747048Y-120811238D01*
X177747048Y-120811238D02*
X177794667Y-120858857D01*
X178223239Y-121239809D02*
X178556572Y-121239809D01*
X178699429Y-121763619D02*
X178223239Y-121763619D01*
X178223239Y-121763619D02*
X178223239Y-120763619D01*
X178223239Y-120763619D02*
X178699429Y-120763619D01*
X179080382Y-121716000D02*
X179223239Y-121763619D01*
X179223239Y-121763619D02*
X179461334Y-121763619D01*
X179461334Y-121763619D02*
X179556572Y-121716000D01*
X179556572Y-121716000D02*
X179604191Y-121668380D01*
X179604191Y-121668380D02*
X179651810Y-121573142D01*
X179651810Y-121573142D02*
X179651810Y-121477904D01*
X179651810Y-121477904D02*
X179604191Y-121382666D01*
X179604191Y-121382666D02*
X179556572Y-121335047D01*
X179556572Y-121335047D02*
X179461334Y-121287428D01*
X179461334Y-121287428D02*
X179270858Y-121239809D01*
X179270858Y-121239809D02*
X179175620Y-121192190D01*
X179175620Y-121192190D02*
X179128001Y-121144571D01*
X179128001Y-121144571D02*
X179080382Y-121049333D01*
X179080382Y-121049333D02*
X179080382Y-120954095D01*
X179080382Y-120954095D02*
X179128001Y-120858857D01*
X179128001Y-120858857D02*
X179175620Y-120811238D01*
X179175620Y-120811238D02*
X179270858Y-120763619D01*
X179270858Y-120763619D02*
X179508953Y-120763619D01*
X179508953Y-120763619D02*
X179651810Y-120811238D01*
X135366095Y-122383619D02*
X135366095Y-123193142D01*
X135366095Y-123193142D02*
X135413714Y-123288380D01*
X135413714Y-123288380D02*
X135461333Y-123336000D01*
X135461333Y-123336000D02*
X135556571Y-123383619D01*
X135556571Y-123383619D02*
X135747047Y-123383619D01*
X135747047Y-123383619D02*
X135842285Y-123336000D01*
X135842285Y-123336000D02*
X135889904Y-123288380D01*
X135889904Y-123288380D02*
X135937523Y-123193142D01*
X135937523Y-123193142D02*
X135937523Y-122383619D01*
X136366095Y-123336000D02*
X136508952Y-123383619D01*
X136508952Y-123383619D02*
X136747047Y-123383619D01*
X136747047Y-123383619D02*
X136842285Y-123336000D01*
X136842285Y-123336000D02*
X136889904Y-123288380D01*
X136889904Y-123288380D02*
X136937523Y-123193142D01*
X136937523Y-123193142D02*
X136937523Y-123097904D01*
X136937523Y-123097904D02*
X136889904Y-123002666D01*
X136889904Y-123002666D02*
X136842285Y-122955047D01*
X136842285Y-122955047D02*
X136747047Y-122907428D01*
X136747047Y-122907428D02*
X136556571Y-122859809D01*
X136556571Y-122859809D02*
X136461333Y-122812190D01*
X136461333Y-122812190D02*
X136413714Y-122764571D01*
X136413714Y-122764571D02*
X136366095Y-122669333D01*
X136366095Y-122669333D02*
X136366095Y-122574095D01*
X136366095Y-122574095D02*
X136413714Y-122478857D01*
X136413714Y-122478857D02*
X136461333Y-122431238D01*
X136461333Y-122431238D02*
X136556571Y-122383619D01*
X136556571Y-122383619D02*
X136794666Y-122383619D01*
X136794666Y-122383619D02*
X136937523Y-122431238D01*
X137366095Y-122859809D02*
X137699428Y-122859809D01*
X137842285Y-123383619D02*
X137366095Y-123383619D01*
X137366095Y-123383619D02*
X137366095Y-122383619D01*
X137366095Y-122383619D02*
X137842285Y-122383619D01*
X139366095Y-122859809D02*
X139508952Y-122907428D01*
X139508952Y-122907428D02*
X139556571Y-122955047D01*
X139556571Y-122955047D02*
X139604190Y-123050285D01*
X139604190Y-123050285D02*
X139604190Y-123193142D01*
X139604190Y-123193142D02*
X139556571Y-123288380D01*
X139556571Y-123288380D02*
X139508952Y-123336000D01*
X139508952Y-123336000D02*
X139413714Y-123383619D01*
X139413714Y-123383619D02*
X139032762Y-123383619D01*
X139032762Y-123383619D02*
X139032762Y-122383619D01*
X139032762Y-122383619D02*
X139366095Y-122383619D01*
X139366095Y-122383619D02*
X139461333Y-122431238D01*
X139461333Y-122431238D02*
X139508952Y-122478857D01*
X139508952Y-122478857D02*
X139556571Y-122574095D01*
X139556571Y-122574095D02*
X139556571Y-122669333D01*
X139556571Y-122669333D02*
X139508952Y-122764571D01*
X139508952Y-122764571D02*
X139461333Y-122812190D01*
X139461333Y-122812190D02*
X139366095Y-122859809D01*
X139366095Y-122859809D02*
X139032762Y-122859809D01*
X141128000Y-122859809D02*
X140794667Y-122859809D01*
X140794667Y-123383619D02*
X140794667Y-122383619D01*
X140794667Y-122383619D02*
X141270857Y-122383619D01*
X141842286Y-122383619D02*
X142032762Y-122383619D01*
X142032762Y-122383619D02*
X142128000Y-122431238D01*
X142128000Y-122431238D02*
X142223238Y-122526476D01*
X142223238Y-122526476D02*
X142270857Y-122716952D01*
X142270857Y-122716952D02*
X142270857Y-123050285D01*
X142270857Y-123050285D02*
X142223238Y-123240761D01*
X142223238Y-123240761D02*
X142128000Y-123336000D01*
X142128000Y-123336000D02*
X142032762Y-123383619D01*
X142032762Y-123383619D02*
X141842286Y-123383619D01*
X141842286Y-123383619D02*
X141747048Y-123336000D01*
X141747048Y-123336000D02*
X141651810Y-123240761D01*
X141651810Y-123240761D02*
X141604191Y-123050285D01*
X141604191Y-123050285D02*
X141604191Y-122716952D01*
X141604191Y-122716952D02*
X141651810Y-122526476D01*
X141651810Y-122526476D02*
X141747048Y-122431238D01*
X141747048Y-122431238D02*
X141842286Y-122383619D01*
X143270857Y-123383619D02*
X142937524Y-122907428D01*
X142699429Y-123383619D02*
X142699429Y-122383619D01*
X142699429Y-122383619D02*
X143080381Y-122383619D01*
X143080381Y-122383619D02*
X143175619Y-122431238D01*
X143175619Y-122431238D02*
X143223238Y-122478857D01*
X143223238Y-122478857D02*
X143270857Y-122574095D01*
X143270857Y-122574095D02*
X143270857Y-122716952D01*
X143270857Y-122716952D02*
X143223238Y-122812190D01*
X143223238Y-122812190D02*
X143175619Y-122859809D01*
X143175619Y-122859809D02*
X143080381Y-122907428D01*
X143080381Y-122907428D02*
X142699429Y-122907428D01*
X145032762Y-123288380D02*
X144985143Y-123336000D01*
X144985143Y-123336000D02*
X144842286Y-123383619D01*
X144842286Y-123383619D02*
X144747048Y-123383619D01*
X144747048Y-123383619D02*
X144604191Y-123336000D01*
X144604191Y-123336000D02*
X144508953Y-123240761D01*
X144508953Y-123240761D02*
X144461334Y-123145523D01*
X144461334Y-123145523D02*
X144413715Y-122955047D01*
X144413715Y-122955047D02*
X144413715Y-122812190D01*
X144413715Y-122812190D02*
X144461334Y-122621714D01*
X144461334Y-122621714D02*
X144508953Y-122526476D01*
X144508953Y-122526476D02*
X144604191Y-122431238D01*
X144604191Y-122431238D02*
X144747048Y-122383619D01*
X144747048Y-122383619D02*
X144842286Y-122383619D01*
X144842286Y-122383619D02*
X144985143Y-122431238D01*
X144985143Y-122431238D02*
X145032762Y-122478857D01*
X145651810Y-122383619D02*
X145842286Y-122383619D01*
X145842286Y-122383619D02*
X145937524Y-122431238D01*
X145937524Y-122431238D02*
X146032762Y-122526476D01*
X146032762Y-122526476D02*
X146080381Y-122716952D01*
X146080381Y-122716952D02*
X146080381Y-123050285D01*
X146080381Y-123050285D02*
X146032762Y-123240761D01*
X146032762Y-123240761D02*
X145937524Y-123336000D01*
X145937524Y-123336000D02*
X145842286Y-123383619D01*
X145842286Y-123383619D02*
X145651810Y-123383619D01*
X145651810Y-123383619D02*
X145556572Y-123336000D01*
X145556572Y-123336000D02*
X145461334Y-123240761D01*
X145461334Y-123240761D02*
X145413715Y-123050285D01*
X145413715Y-123050285D02*
X145413715Y-122716952D01*
X145413715Y-122716952D02*
X145461334Y-122526476D01*
X145461334Y-122526476D02*
X145556572Y-122431238D01*
X145556572Y-122431238D02*
X145651810Y-122383619D01*
X146508953Y-123383619D02*
X146508953Y-122383619D01*
X146508953Y-122383619D02*
X146889905Y-122383619D01*
X146889905Y-122383619D02*
X146985143Y-122431238D01*
X146985143Y-122431238D02*
X147032762Y-122478857D01*
X147032762Y-122478857D02*
X147080381Y-122574095D01*
X147080381Y-122574095D02*
X147080381Y-122716952D01*
X147080381Y-122716952D02*
X147032762Y-122812190D01*
X147032762Y-122812190D02*
X146985143Y-122859809D01*
X146985143Y-122859809D02*
X146889905Y-122907428D01*
X146889905Y-122907428D02*
X146508953Y-122907428D01*
X147508953Y-123383619D02*
X147508953Y-122383619D01*
X147508953Y-122383619D02*
X147889905Y-122383619D01*
X147889905Y-122383619D02*
X147985143Y-122431238D01*
X147985143Y-122431238D02*
X148032762Y-122478857D01*
X148032762Y-122478857D02*
X148080381Y-122574095D01*
X148080381Y-122574095D02*
X148080381Y-122716952D01*
X148080381Y-122716952D02*
X148032762Y-122812190D01*
X148032762Y-122812190D02*
X147985143Y-122859809D01*
X147985143Y-122859809D02*
X147889905Y-122907428D01*
X147889905Y-122907428D02*
X147508953Y-122907428D01*
X148508953Y-122859809D02*
X148842286Y-122859809D01*
X148985143Y-123383619D02*
X148508953Y-123383619D01*
X148508953Y-123383619D02*
X148508953Y-122383619D01*
X148508953Y-122383619D02*
X148985143Y-122383619D01*
X149985143Y-123383619D02*
X149651810Y-122907428D01*
X149413715Y-123383619D02*
X149413715Y-122383619D01*
X149413715Y-122383619D02*
X149794667Y-122383619D01*
X149794667Y-122383619D02*
X149889905Y-122431238D01*
X149889905Y-122431238D02*
X149937524Y-122478857D01*
X149937524Y-122478857D02*
X149985143Y-122574095D01*
X149985143Y-122574095D02*
X149985143Y-122716952D01*
X149985143Y-122716952D02*
X149937524Y-122812190D01*
X149937524Y-122812190D02*
X149889905Y-122859809D01*
X149889905Y-122859809D02*
X149794667Y-122907428D01*
X149794667Y-122907428D02*
X149413715Y-122907428D01*
X151175620Y-123383619D02*
X151175620Y-122383619D01*
X151175620Y-122383619D02*
X151556572Y-122383619D01*
X151556572Y-122383619D02*
X151651810Y-122431238D01*
X151651810Y-122431238D02*
X151699429Y-122478857D01*
X151699429Y-122478857D02*
X151747048Y-122574095D01*
X151747048Y-122574095D02*
X151747048Y-122716952D01*
X151747048Y-122716952D02*
X151699429Y-122812190D01*
X151699429Y-122812190D02*
X151651810Y-122859809D01*
X151651810Y-122859809D02*
X151556572Y-122907428D01*
X151556572Y-122907428D02*
X151175620Y-122907428D01*
X152366096Y-122383619D02*
X152556572Y-122383619D01*
X152556572Y-122383619D02*
X152651810Y-122431238D01*
X152651810Y-122431238D02*
X152747048Y-122526476D01*
X152747048Y-122526476D02*
X152794667Y-122716952D01*
X152794667Y-122716952D02*
X152794667Y-123050285D01*
X152794667Y-123050285D02*
X152747048Y-123240761D01*
X152747048Y-123240761D02*
X152651810Y-123336000D01*
X152651810Y-123336000D02*
X152556572Y-123383619D01*
X152556572Y-123383619D02*
X152366096Y-123383619D01*
X152366096Y-123383619D02*
X152270858Y-123336000D01*
X152270858Y-123336000D02*
X152175620Y-123240761D01*
X152175620Y-123240761D02*
X152128001Y-123050285D01*
X152128001Y-123050285D02*
X152128001Y-122716952D01*
X152128001Y-122716952D02*
X152175620Y-122526476D01*
X152175620Y-122526476D02*
X152270858Y-122431238D01*
X152270858Y-122431238D02*
X152366096Y-122383619D01*
X153223239Y-122383619D02*
X153223239Y-123193142D01*
X153223239Y-123193142D02*
X153270858Y-123288380D01*
X153270858Y-123288380D02*
X153318477Y-123336000D01*
X153318477Y-123336000D02*
X153413715Y-123383619D01*
X153413715Y-123383619D02*
X153604191Y-123383619D01*
X153604191Y-123383619D02*
X153699429Y-123336000D01*
X153699429Y-123336000D02*
X153747048Y-123288380D01*
X153747048Y-123288380D02*
X153794667Y-123193142D01*
X153794667Y-123193142D02*
X153794667Y-122383619D01*
X154842286Y-123383619D02*
X154508953Y-122907428D01*
X154270858Y-123383619D02*
X154270858Y-122383619D01*
X154270858Y-122383619D02*
X154651810Y-122383619D01*
X154651810Y-122383619D02*
X154747048Y-122431238D01*
X154747048Y-122431238D02*
X154794667Y-122478857D01*
X154794667Y-122478857D02*
X154842286Y-122574095D01*
X154842286Y-122574095D02*
X154842286Y-122716952D01*
X154842286Y-122716952D02*
X154794667Y-122812190D01*
X154794667Y-122812190D02*
X154747048Y-122859809D01*
X154747048Y-122859809D02*
X154651810Y-122907428D01*
X154651810Y-122907428D02*
X154270858Y-122907428D01*
X156366096Y-122859809D02*
X156032763Y-122859809D01*
X156032763Y-123383619D02*
X156032763Y-122383619D01*
X156032763Y-122383619D02*
X156508953Y-122383619D01*
X156889906Y-123383619D02*
X156889906Y-122383619D01*
X157842286Y-123383619D02*
X157366096Y-123383619D01*
X157366096Y-123383619D02*
X157366096Y-122383619D01*
X158651810Y-123383619D02*
X158175620Y-123383619D01*
X158175620Y-123383619D02*
X158175620Y-122383619D01*
X135366095Y-125003619D02*
X135366095Y-124003619D01*
X135937523Y-125003619D02*
X135508952Y-124432190D01*
X135937523Y-124003619D02*
X135366095Y-124575047D01*
X136366095Y-124479809D02*
X136699428Y-124479809D01*
X136842285Y-125003619D02*
X136366095Y-125003619D01*
X136366095Y-125003619D02*
X136366095Y-124003619D01*
X136366095Y-124003619D02*
X136842285Y-124003619D01*
X137270857Y-124479809D02*
X137604190Y-124479809D01*
X137747047Y-125003619D02*
X137270857Y-125003619D01*
X137270857Y-125003619D02*
X137270857Y-124003619D01*
X137270857Y-124003619D02*
X137747047Y-124003619D01*
X138175619Y-125003619D02*
X138175619Y-124003619D01*
X138175619Y-124003619D02*
X138556571Y-124003619D01*
X138556571Y-124003619D02*
X138651809Y-124051238D01*
X138651809Y-124051238D02*
X138699428Y-124098857D01*
X138699428Y-124098857D02*
X138747047Y-124194095D01*
X138747047Y-124194095D02*
X138747047Y-124336952D01*
X138747047Y-124336952D02*
X138699428Y-124432190D01*
X138699428Y-124432190D02*
X138651809Y-124479809D01*
X138651809Y-124479809D02*
X138556571Y-124527428D01*
X138556571Y-124527428D02*
X138175619Y-124527428D01*
X139366095Y-124003619D02*
X139556571Y-124003619D01*
X139556571Y-124003619D02*
X139651809Y-124051238D01*
X139651809Y-124051238D02*
X139747047Y-124146476D01*
X139747047Y-124146476D02*
X139794666Y-124336952D01*
X139794666Y-124336952D02*
X139794666Y-124670285D01*
X139794666Y-124670285D02*
X139747047Y-124860761D01*
X139747047Y-124860761D02*
X139651809Y-124956000D01*
X139651809Y-124956000D02*
X139556571Y-125003619D01*
X139556571Y-125003619D02*
X139366095Y-125003619D01*
X139366095Y-125003619D02*
X139270857Y-124956000D01*
X139270857Y-124956000D02*
X139175619Y-124860761D01*
X139175619Y-124860761D02*
X139128000Y-124670285D01*
X139128000Y-124670285D02*
X139128000Y-124336952D01*
X139128000Y-124336952D02*
X139175619Y-124146476D01*
X139175619Y-124146476D02*
X139270857Y-124051238D01*
X139270857Y-124051238D02*
X139366095Y-124003619D01*
X140223238Y-124003619D02*
X140223238Y-124813142D01*
X140223238Y-124813142D02*
X140270857Y-124908380D01*
X140270857Y-124908380D02*
X140318476Y-124956000D01*
X140318476Y-124956000D02*
X140413714Y-125003619D01*
X140413714Y-125003619D02*
X140604190Y-125003619D01*
X140604190Y-125003619D02*
X140699428Y-124956000D01*
X140699428Y-124956000D02*
X140747047Y-124908380D01*
X140747047Y-124908380D02*
X140794666Y-124813142D01*
X140794666Y-124813142D02*
X140794666Y-124003619D01*
X141128000Y-124003619D02*
X141699428Y-124003619D01*
X141413714Y-125003619D02*
X141413714Y-124003619D01*
X142699429Y-124003619D02*
X143366095Y-124003619D01*
X143366095Y-124003619D02*
X142699429Y-125003619D01*
X142699429Y-125003619D02*
X143366095Y-125003619D01*
X143937524Y-124003619D02*
X144128000Y-124003619D01*
X144128000Y-124003619D02*
X144223238Y-124051238D01*
X144223238Y-124051238D02*
X144318476Y-124146476D01*
X144318476Y-124146476D02*
X144366095Y-124336952D01*
X144366095Y-124336952D02*
X144366095Y-124670285D01*
X144366095Y-124670285D02*
X144318476Y-124860761D01*
X144318476Y-124860761D02*
X144223238Y-124956000D01*
X144223238Y-124956000D02*
X144128000Y-125003619D01*
X144128000Y-125003619D02*
X143937524Y-125003619D01*
X143937524Y-125003619D02*
X143842286Y-124956000D01*
X143842286Y-124956000D02*
X143747048Y-124860761D01*
X143747048Y-124860761D02*
X143699429Y-124670285D01*
X143699429Y-124670285D02*
X143699429Y-124336952D01*
X143699429Y-124336952D02*
X143747048Y-124146476D01*
X143747048Y-124146476D02*
X143842286Y-124051238D01*
X143842286Y-124051238D02*
X143937524Y-124003619D01*
X144794667Y-125003619D02*
X144794667Y-124003619D01*
X144794667Y-124003619D02*
X145366095Y-125003619D01*
X145366095Y-125003619D02*
X145366095Y-124003619D01*
X145842286Y-124479809D02*
X146175619Y-124479809D01*
X146318476Y-125003619D02*
X145842286Y-125003619D01*
X145842286Y-125003619D02*
X145842286Y-124003619D01*
X145842286Y-124003619D02*
X146318476Y-124003619D01*
X147842286Y-124479809D02*
X147508953Y-124479809D01*
X147508953Y-125003619D02*
X147508953Y-124003619D01*
X147508953Y-124003619D02*
X147985143Y-124003619D01*
X148556572Y-124003619D02*
X148747048Y-124003619D01*
X148747048Y-124003619D02*
X148842286Y-124051238D01*
X148842286Y-124051238D02*
X148937524Y-124146476D01*
X148937524Y-124146476D02*
X148985143Y-124336952D01*
X148985143Y-124336952D02*
X148985143Y-124670285D01*
X148985143Y-124670285D02*
X148937524Y-124860761D01*
X148937524Y-124860761D02*
X148842286Y-124956000D01*
X148842286Y-124956000D02*
X148747048Y-125003619D01*
X148747048Y-125003619D02*
X148556572Y-125003619D01*
X148556572Y-125003619D02*
X148461334Y-124956000D01*
X148461334Y-124956000D02*
X148366096Y-124860761D01*
X148366096Y-124860761D02*
X148318477Y-124670285D01*
X148318477Y-124670285D02*
X148318477Y-124336952D01*
X148318477Y-124336952D02*
X148366096Y-124146476D01*
X148366096Y-124146476D02*
X148461334Y-124051238D01*
X148461334Y-124051238D02*
X148556572Y-124003619D01*
X149985143Y-125003619D02*
X149651810Y-124527428D01*
X149413715Y-125003619D02*
X149413715Y-124003619D01*
X149413715Y-124003619D02*
X149794667Y-124003619D01*
X149794667Y-124003619D02*
X149889905Y-124051238D01*
X149889905Y-124051238D02*
X149937524Y-124098857D01*
X149937524Y-124098857D02*
X149985143Y-124194095D01*
X149985143Y-124194095D02*
X149985143Y-124336952D01*
X149985143Y-124336952D02*
X149937524Y-124432190D01*
X149937524Y-124432190D02*
X149889905Y-124479809D01*
X149889905Y-124479809D02*
X149794667Y-124527428D01*
X149794667Y-124527428D02*
X149413715Y-124527428D01*
X151175620Y-125003619D02*
X151175620Y-124003619D01*
X151175620Y-124003619D02*
X151556572Y-124003619D01*
X151556572Y-124003619D02*
X151651810Y-124051238D01*
X151651810Y-124051238D02*
X151699429Y-124098857D01*
X151699429Y-124098857D02*
X151747048Y-124194095D01*
X151747048Y-124194095D02*
X151747048Y-124336952D01*
X151747048Y-124336952D02*
X151699429Y-124432190D01*
X151699429Y-124432190D02*
X151651810Y-124479809D01*
X151651810Y-124479809D02*
X151556572Y-124527428D01*
X151556572Y-124527428D02*
X151175620Y-124527428D01*
X152175620Y-125003619D02*
X152175620Y-124003619D01*
X152651810Y-125003619D02*
X152651810Y-124003619D01*
X152651810Y-124003619D02*
X153223238Y-125003619D01*
X153223238Y-125003619D02*
X153223238Y-124003619D01*
X154461334Y-125003619D02*
X154461334Y-124003619D01*
X154461334Y-124003619D02*
X155032762Y-125003619D01*
X155032762Y-125003619D02*
X155032762Y-124003619D01*
X155508953Y-124003619D02*
X155508953Y-124813142D01*
X155508953Y-124813142D02*
X155556572Y-124908380D01*
X155556572Y-124908380D02*
X155604191Y-124956000D01*
X155604191Y-124956000D02*
X155699429Y-125003619D01*
X155699429Y-125003619D02*
X155889905Y-125003619D01*
X155889905Y-125003619D02*
X155985143Y-124956000D01*
X155985143Y-124956000D02*
X156032762Y-124908380D01*
X156032762Y-124908380D02*
X156080381Y-124813142D01*
X156080381Y-124813142D02*
X156080381Y-124003619D01*
X156556572Y-125003619D02*
X156556572Y-124003619D01*
X156556572Y-124003619D02*
X156889905Y-124717904D01*
X156889905Y-124717904D02*
X157223238Y-124003619D01*
X157223238Y-124003619D02*
X157223238Y-125003619D01*
X158032762Y-124479809D02*
X158175619Y-124527428D01*
X158175619Y-124527428D02*
X158223238Y-124575047D01*
X158223238Y-124575047D02*
X158270857Y-124670285D01*
X158270857Y-124670285D02*
X158270857Y-124813142D01*
X158270857Y-124813142D02*
X158223238Y-124908380D01*
X158223238Y-124908380D02*
X158175619Y-124956000D01*
X158175619Y-124956000D02*
X158080381Y-125003619D01*
X158080381Y-125003619D02*
X157699429Y-125003619D01*
X157699429Y-125003619D02*
X157699429Y-124003619D01*
X157699429Y-124003619D02*
X158032762Y-124003619D01*
X158032762Y-124003619D02*
X158128000Y-124051238D01*
X158128000Y-124051238D02*
X158175619Y-124098857D01*
X158175619Y-124098857D02*
X158223238Y-124194095D01*
X158223238Y-124194095D02*
X158223238Y-124289333D01*
X158223238Y-124289333D02*
X158175619Y-124384571D01*
X158175619Y-124384571D02*
X158128000Y-124432190D01*
X158128000Y-124432190D02*
X158032762Y-124479809D01*
X158032762Y-124479809D02*
X157699429Y-124479809D01*
X158699429Y-124479809D02*
X159032762Y-124479809D01*
X159175619Y-125003619D02*
X158699429Y-125003619D01*
X158699429Y-125003619D02*
X158699429Y-124003619D01*
X158699429Y-124003619D02*
X159175619Y-124003619D01*
X160175619Y-125003619D02*
X159842286Y-124527428D01*
X159604191Y-125003619D02*
X159604191Y-124003619D01*
X159604191Y-124003619D02*
X159985143Y-124003619D01*
X159985143Y-124003619D02*
X160080381Y-124051238D01*
X160080381Y-124051238D02*
X160128000Y-124098857D01*
X160128000Y-124098857D02*
X160175619Y-124194095D01*
X160175619Y-124194095D02*
X160175619Y-124336952D01*
X160175619Y-124336952D02*
X160128000Y-124432190D01*
X160128000Y-124432190D02*
X160080381Y-124479809D01*
X160080381Y-124479809D02*
X159985143Y-124527428D01*
X159985143Y-124527428D02*
X159604191Y-124527428D01*
X160604191Y-125003619D02*
X160604191Y-124003619D01*
X161080381Y-125003619D02*
X161080381Y-124003619D01*
X161080381Y-124003619D02*
X161651809Y-125003619D01*
X161651809Y-125003619D02*
X161651809Y-124003619D01*
X162651809Y-124051238D02*
X162556571Y-124003619D01*
X162556571Y-124003619D02*
X162413714Y-124003619D01*
X162413714Y-124003619D02*
X162270857Y-124051238D01*
X162270857Y-124051238D02*
X162175619Y-124146476D01*
X162175619Y-124146476D02*
X162128000Y-124241714D01*
X162128000Y-124241714D02*
X162080381Y-124432190D01*
X162080381Y-124432190D02*
X162080381Y-124575047D01*
X162080381Y-124575047D02*
X162128000Y-124765523D01*
X162128000Y-124765523D02*
X162175619Y-124860761D01*
X162175619Y-124860761D02*
X162270857Y-124956000D01*
X162270857Y-124956000D02*
X162413714Y-125003619D01*
X162413714Y-125003619D02*
X162508952Y-125003619D01*
X162508952Y-125003619D02*
X162651809Y-124956000D01*
X162651809Y-124956000D02*
X162699428Y-124908380D01*
X162699428Y-124908380D02*
X162699428Y-124575047D01*
X162699428Y-124575047D02*
X162508952Y-124575047D01*
X135366095Y-126623619D02*
X135366095Y-125623619D01*
X135366095Y-125623619D02*
X135937523Y-126623619D01*
X135937523Y-126623619D02*
X135937523Y-125623619D01*
X136413714Y-126099809D02*
X136747047Y-126099809D01*
X136889904Y-126623619D02*
X136413714Y-126623619D01*
X136413714Y-126623619D02*
X136413714Y-125623619D01*
X136413714Y-125623619D02*
X136889904Y-125623619D01*
X137318476Y-126099809D02*
X137651809Y-126099809D01*
X137794666Y-126623619D02*
X137318476Y-126623619D01*
X137318476Y-126623619D02*
X137318476Y-125623619D01*
X137318476Y-125623619D02*
X137794666Y-125623619D01*
X138223238Y-126623619D02*
X138223238Y-125623619D01*
X138223238Y-125623619D02*
X138461333Y-125623619D01*
X138461333Y-125623619D02*
X138604190Y-125671238D01*
X138604190Y-125671238D02*
X138699428Y-125766476D01*
X138699428Y-125766476D02*
X138747047Y-125861714D01*
X138747047Y-125861714D02*
X138794666Y-126052190D01*
X138794666Y-126052190D02*
X138794666Y-126195047D01*
X138794666Y-126195047D02*
X138747047Y-126385523D01*
X138747047Y-126385523D02*
X138699428Y-126480761D01*
X138699428Y-126480761D02*
X138604190Y-126576000D01*
X138604190Y-126576000D02*
X138461333Y-126623619D01*
X138461333Y-126623619D02*
X138223238Y-126623619D01*
X139842286Y-125623619D02*
X140413714Y-125623619D01*
X140128000Y-126623619D02*
X140128000Y-125623619D01*
X140937524Y-125623619D02*
X141128000Y-125623619D01*
X141128000Y-125623619D02*
X141223238Y-125671238D01*
X141223238Y-125671238D02*
X141318476Y-125766476D01*
X141318476Y-125766476D02*
X141366095Y-125956952D01*
X141366095Y-125956952D02*
X141366095Y-126290285D01*
X141366095Y-126290285D02*
X141318476Y-126480761D01*
X141318476Y-126480761D02*
X141223238Y-126576000D01*
X141223238Y-126576000D02*
X141128000Y-126623619D01*
X141128000Y-126623619D02*
X140937524Y-126623619D01*
X140937524Y-126623619D02*
X140842286Y-126576000D01*
X140842286Y-126576000D02*
X140747048Y-126480761D01*
X140747048Y-126480761D02*
X140699429Y-126290285D01*
X140699429Y-126290285D02*
X140699429Y-125956952D01*
X140699429Y-125956952D02*
X140747048Y-125766476D01*
X140747048Y-125766476D02*
X140842286Y-125671238D01*
X140842286Y-125671238D02*
X140937524Y-125623619D01*
X143128000Y-126623619D02*
X142794667Y-126147428D01*
X142556572Y-126623619D02*
X142556572Y-125623619D01*
X142556572Y-125623619D02*
X142937524Y-125623619D01*
X142937524Y-125623619D02*
X143032762Y-125671238D01*
X143032762Y-125671238D02*
X143080381Y-125718857D01*
X143080381Y-125718857D02*
X143128000Y-125814095D01*
X143128000Y-125814095D02*
X143128000Y-125956952D01*
X143128000Y-125956952D02*
X143080381Y-126052190D01*
X143080381Y-126052190D02*
X143032762Y-126099809D01*
X143032762Y-126099809D02*
X142937524Y-126147428D01*
X142937524Y-126147428D02*
X142556572Y-126147428D01*
X143556572Y-126099809D02*
X143889905Y-126099809D01*
X144032762Y-126623619D02*
X143556572Y-126623619D01*
X143556572Y-126623619D02*
X143556572Y-125623619D01*
X143556572Y-125623619D02*
X144032762Y-125623619D01*
X144461334Y-126623619D02*
X144461334Y-125623619D01*
X144461334Y-125623619D02*
X144699429Y-125623619D01*
X144699429Y-125623619D02*
X144842286Y-125671238D01*
X144842286Y-125671238D02*
X144937524Y-125766476D01*
X144937524Y-125766476D02*
X144985143Y-125861714D01*
X144985143Y-125861714D02*
X145032762Y-126052190D01*
X145032762Y-126052190D02*
X145032762Y-126195047D01*
X145032762Y-126195047D02*
X144985143Y-126385523D01*
X144985143Y-126385523D02*
X144937524Y-126480761D01*
X144937524Y-126480761D02*
X144842286Y-126576000D01*
X144842286Y-126576000D02*
X144699429Y-126623619D01*
X144699429Y-126623619D02*
X144461334Y-126623619D01*
X145651810Y-125623619D02*
X145842286Y-125623619D01*
X145842286Y-125623619D02*
X145937524Y-125671238D01*
X145937524Y-125671238D02*
X146032762Y-125766476D01*
X146032762Y-125766476D02*
X146080381Y-125956952D01*
X146080381Y-125956952D02*
X146080381Y-126290285D01*
X146080381Y-126290285D02*
X146032762Y-126480761D01*
X146032762Y-126480761D02*
X145937524Y-126576000D01*
X145937524Y-126576000D02*
X145842286Y-126623619D01*
X145842286Y-126623619D02*
X145651810Y-126623619D01*
X145651810Y-126623619D02*
X145556572Y-126576000D01*
X145556572Y-126576000D02*
X145461334Y-126480761D01*
X145461334Y-126480761D02*
X145413715Y-126290285D01*
X145413715Y-126290285D02*
X145413715Y-125956952D01*
X145413715Y-125956952D02*
X145461334Y-125766476D01*
X145461334Y-125766476D02*
X145556572Y-125671238D01*
X145556572Y-125671238D02*
X145651810Y-125623619D01*
X147794667Y-125671238D02*
X147699429Y-125623619D01*
X147699429Y-125623619D02*
X147556572Y-125623619D01*
X147556572Y-125623619D02*
X147413715Y-125671238D01*
X147413715Y-125671238D02*
X147318477Y-125766476D01*
X147318477Y-125766476D02*
X147270858Y-125861714D01*
X147270858Y-125861714D02*
X147223239Y-126052190D01*
X147223239Y-126052190D02*
X147223239Y-126195047D01*
X147223239Y-126195047D02*
X147270858Y-126385523D01*
X147270858Y-126385523D02*
X147318477Y-126480761D01*
X147318477Y-126480761D02*
X147413715Y-126576000D01*
X147413715Y-126576000D02*
X147556572Y-126623619D01*
X147556572Y-126623619D02*
X147651810Y-126623619D01*
X147651810Y-126623619D02*
X147794667Y-126576000D01*
X147794667Y-126576000D02*
X147842286Y-126528380D01*
X147842286Y-126528380D02*
X147842286Y-126195047D01*
X147842286Y-126195047D02*
X147651810Y-126195047D01*
X148270858Y-126099809D02*
X148604191Y-126099809D01*
X148747048Y-126623619D02*
X148270858Y-126623619D01*
X148270858Y-126623619D02*
X148270858Y-125623619D01*
X148270858Y-125623619D02*
X148747048Y-125623619D01*
X149747048Y-126623619D02*
X149413715Y-126147428D01*
X149175620Y-126623619D02*
X149175620Y-125623619D01*
X149175620Y-125623619D02*
X149556572Y-125623619D01*
X149556572Y-125623619D02*
X149651810Y-125671238D01*
X149651810Y-125671238D02*
X149699429Y-125718857D01*
X149699429Y-125718857D02*
X149747048Y-125814095D01*
X149747048Y-125814095D02*
X149747048Y-125956952D01*
X149747048Y-125956952D02*
X149699429Y-126052190D01*
X149699429Y-126052190D02*
X149651810Y-126099809D01*
X149651810Y-126099809D02*
X149556572Y-126147428D01*
X149556572Y-126147428D02*
X149175620Y-126147428D01*
X150508953Y-126099809D02*
X150651810Y-126147428D01*
X150651810Y-126147428D02*
X150699429Y-126195047D01*
X150699429Y-126195047D02*
X150747048Y-126290285D01*
X150747048Y-126290285D02*
X150747048Y-126433142D01*
X150747048Y-126433142D02*
X150699429Y-126528380D01*
X150699429Y-126528380D02*
X150651810Y-126576000D01*
X150651810Y-126576000D02*
X150556572Y-126623619D01*
X150556572Y-126623619D02*
X150175620Y-126623619D01*
X150175620Y-126623619D02*
X150175620Y-125623619D01*
X150175620Y-125623619D02*
X150508953Y-125623619D01*
X150508953Y-125623619D02*
X150604191Y-125671238D01*
X150604191Y-125671238D02*
X150651810Y-125718857D01*
X150651810Y-125718857D02*
X150699429Y-125814095D01*
X150699429Y-125814095D02*
X150699429Y-125909333D01*
X150699429Y-125909333D02*
X150651810Y-126004571D01*
X150651810Y-126004571D02*
X150604191Y-126052190D01*
X150604191Y-126052190D02*
X150508953Y-126099809D01*
X150508953Y-126099809D02*
X150175620Y-126099809D01*
X151175620Y-126099809D02*
X151508953Y-126099809D01*
X151651810Y-126623619D02*
X151175620Y-126623619D01*
X151175620Y-126623619D02*
X151175620Y-125623619D01*
X151175620Y-125623619D02*
X151651810Y-125623619D01*
X152651810Y-126623619D02*
X152318477Y-126147428D01*
X152080382Y-126623619D02*
X152080382Y-125623619D01*
X152080382Y-125623619D02*
X152461334Y-125623619D01*
X152461334Y-125623619D02*
X152556572Y-125671238D01*
X152556572Y-125671238D02*
X152604191Y-125718857D01*
X152604191Y-125718857D02*
X152651810Y-125814095D01*
X152651810Y-125814095D02*
X152651810Y-125956952D01*
X152651810Y-125956952D02*
X152604191Y-126052190D01*
X152604191Y-126052190D02*
X152556572Y-126099809D01*
X152556572Y-126099809D02*
X152461334Y-126147428D01*
X152461334Y-126147428D02*
X152080382Y-126147428D01*
X154032763Y-125623619D02*
X154223239Y-125623619D01*
X154223239Y-125623619D02*
X154318477Y-125671238D01*
X154318477Y-125671238D02*
X154413715Y-125766476D01*
X154413715Y-125766476D02*
X154461334Y-125956952D01*
X154461334Y-125956952D02*
X154461334Y-126290285D01*
X154461334Y-126290285D02*
X154413715Y-126480761D01*
X154413715Y-126480761D02*
X154318477Y-126576000D01*
X154318477Y-126576000D02*
X154223239Y-126623619D01*
X154223239Y-126623619D02*
X154032763Y-126623619D01*
X154032763Y-126623619D02*
X153937525Y-126576000D01*
X153937525Y-126576000D02*
X153842287Y-126480761D01*
X153842287Y-126480761D02*
X153794668Y-126290285D01*
X153794668Y-126290285D02*
X153794668Y-125956952D01*
X153794668Y-125956952D02*
X153842287Y-125766476D01*
X153842287Y-125766476D02*
X153937525Y-125671238D01*
X153937525Y-125671238D02*
X154032763Y-125623619D01*
X154889906Y-125623619D02*
X154889906Y-126433142D01*
X154889906Y-126433142D02*
X154937525Y-126528380D01*
X154937525Y-126528380D02*
X154985144Y-126576000D01*
X154985144Y-126576000D02*
X155080382Y-126623619D01*
X155080382Y-126623619D02*
X155270858Y-126623619D01*
X155270858Y-126623619D02*
X155366096Y-126576000D01*
X155366096Y-126576000D02*
X155413715Y-126528380D01*
X155413715Y-126528380D02*
X155461334Y-126433142D01*
X155461334Y-126433142D02*
X155461334Y-125623619D01*
X155794668Y-125623619D02*
X156366096Y-125623619D01*
X156080382Y-126623619D02*
X156080382Y-125623619D01*
X156699430Y-126623619D02*
X156699430Y-125623619D01*
X156699430Y-125623619D02*
X157080382Y-125623619D01*
X157080382Y-125623619D02*
X157175620Y-125671238D01*
X157175620Y-125671238D02*
X157223239Y-125718857D01*
X157223239Y-125718857D02*
X157270858Y-125814095D01*
X157270858Y-125814095D02*
X157270858Y-125956952D01*
X157270858Y-125956952D02*
X157223239Y-126052190D01*
X157223239Y-126052190D02*
X157175620Y-126099809D01*
X157175620Y-126099809D02*
X157080382Y-126147428D01*
X157080382Y-126147428D02*
X156699430Y-126147428D01*
X157699430Y-125623619D02*
X157699430Y-126433142D01*
X157699430Y-126433142D02*
X157747049Y-126528380D01*
X157747049Y-126528380D02*
X157794668Y-126576000D01*
X157794668Y-126576000D02*
X157889906Y-126623619D01*
X157889906Y-126623619D02*
X158080382Y-126623619D01*
X158080382Y-126623619D02*
X158175620Y-126576000D01*
X158175620Y-126576000D02*
X158223239Y-126528380D01*
X158223239Y-126528380D02*
X158270858Y-126433142D01*
X158270858Y-126433142D02*
X158270858Y-125623619D01*
X158604192Y-125623619D02*
X159175620Y-125623619D01*
X158889906Y-126623619D02*
X158889906Y-125623619D01*
X159461335Y-126576000D02*
X159604192Y-126623619D01*
X159604192Y-126623619D02*
X159842287Y-126623619D01*
X159842287Y-126623619D02*
X159937525Y-126576000D01*
X159937525Y-126576000D02*
X159985144Y-126528380D01*
X159985144Y-126528380D02*
X160032763Y-126433142D01*
X160032763Y-126433142D02*
X160032763Y-126337904D01*
X160032763Y-126337904D02*
X159985144Y-126242666D01*
X159985144Y-126242666D02*
X159937525Y-126195047D01*
X159937525Y-126195047D02*
X159842287Y-126147428D01*
X159842287Y-126147428D02*
X159651811Y-126099809D01*
X159651811Y-126099809D02*
X159556573Y-126052190D01*
X159556573Y-126052190D02*
X159508954Y-126004571D01*
X159508954Y-126004571D02*
X159461335Y-125909333D01*
X159461335Y-125909333D02*
X159461335Y-125814095D01*
X159461335Y-125814095D02*
X159508954Y-125718857D01*
X159508954Y-125718857D02*
X159556573Y-125671238D01*
X159556573Y-125671238D02*
X159651811Y-125623619D01*
X159651811Y-125623619D02*
X159889906Y-125623619D01*
X159889906Y-125623619D02*
X160032763Y-125671238D01*
X161556573Y-126099809D02*
X161223240Y-126099809D01*
X161223240Y-126623619D02*
X161223240Y-125623619D01*
X161223240Y-125623619D02*
X161699430Y-125623619D01*
X162270859Y-125623619D02*
X162461335Y-125623619D01*
X162461335Y-125623619D02*
X162556573Y-125671238D01*
X162556573Y-125671238D02*
X162651811Y-125766476D01*
X162651811Y-125766476D02*
X162699430Y-125956952D01*
X162699430Y-125956952D02*
X162699430Y-126290285D01*
X162699430Y-126290285D02*
X162651811Y-126480761D01*
X162651811Y-126480761D02*
X162556573Y-126576000D01*
X162556573Y-126576000D02*
X162461335Y-126623619D01*
X162461335Y-126623619D02*
X162270859Y-126623619D01*
X162270859Y-126623619D02*
X162175621Y-126576000D01*
X162175621Y-126576000D02*
X162080383Y-126480761D01*
X162080383Y-126480761D02*
X162032764Y-126290285D01*
X162032764Y-126290285D02*
X162032764Y-125956952D01*
X162032764Y-125956952D02*
X162080383Y-125766476D01*
X162080383Y-125766476D02*
X162175621Y-125671238D01*
X162175621Y-125671238D02*
X162270859Y-125623619D01*
X163699430Y-126623619D02*
X163366097Y-126147428D01*
X163128002Y-126623619D02*
X163128002Y-125623619D01*
X163128002Y-125623619D02*
X163508954Y-125623619D01*
X163508954Y-125623619D02*
X163604192Y-125671238D01*
X163604192Y-125671238D02*
X163651811Y-125718857D01*
X163651811Y-125718857D02*
X163699430Y-125814095D01*
X163699430Y-125814095D02*
X163699430Y-125956952D01*
X163699430Y-125956952D02*
X163651811Y-126052190D01*
X163651811Y-126052190D02*
X163604192Y-126099809D01*
X163604192Y-126099809D02*
X163508954Y-126147428D01*
X163508954Y-126147428D02*
X163128002Y-126147428D01*
X165461335Y-126528380D02*
X165413716Y-126576000D01*
X165413716Y-126576000D02*
X165270859Y-126623619D01*
X165270859Y-126623619D02*
X165175621Y-126623619D01*
X165175621Y-126623619D02*
X165032764Y-126576000D01*
X165032764Y-126576000D02*
X164937526Y-126480761D01*
X164937526Y-126480761D02*
X164889907Y-126385523D01*
X164889907Y-126385523D02*
X164842288Y-126195047D01*
X164842288Y-126195047D02*
X164842288Y-126052190D01*
X164842288Y-126052190D02*
X164889907Y-125861714D01*
X164889907Y-125861714D02*
X164937526Y-125766476D01*
X164937526Y-125766476D02*
X165032764Y-125671238D01*
X165032764Y-125671238D02*
X165175621Y-125623619D01*
X165175621Y-125623619D02*
X165270859Y-125623619D01*
X165270859Y-125623619D02*
X165413716Y-125671238D01*
X165413716Y-125671238D02*
X165461335Y-125718857D01*
X165889907Y-126623619D02*
X165889907Y-125623619D01*
X165889907Y-125623619D02*
X166223240Y-126337904D01*
X166223240Y-126337904D02*
X166556573Y-125623619D01*
X166556573Y-125623619D02*
X166556573Y-126623619D01*
X167556573Y-126623619D02*
X166985145Y-126623619D01*
X167270859Y-126623619D02*
X167270859Y-125623619D01*
X167270859Y-125623619D02*
X167175621Y-125766476D01*
X167175621Y-125766476D02*
X167080383Y-125861714D01*
X167080383Y-125861714D02*
X166985145Y-125909333D01*
X168508954Y-126623619D02*
X167937526Y-126623619D01*
X168223240Y-126623619D02*
X168223240Y-125623619D01*
X168223240Y-125623619D02*
X168128002Y-125766476D01*
X168128002Y-125766476D02*
X168032764Y-125861714D01*
X168032764Y-125861714D02*
X167937526Y-125909333D01*
X169128002Y-125623619D02*
X169223240Y-125623619D01*
X169223240Y-125623619D02*
X169318478Y-125671238D01*
X169318478Y-125671238D02*
X169366097Y-125718857D01*
X169366097Y-125718857D02*
X169413716Y-125814095D01*
X169413716Y-125814095D02*
X169461335Y-126004571D01*
X169461335Y-126004571D02*
X169461335Y-126242666D01*
X169461335Y-126242666D02*
X169413716Y-126433142D01*
X169413716Y-126433142D02*
X169366097Y-126528380D01*
X169366097Y-126528380D02*
X169318478Y-126576000D01*
X169318478Y-126576000D02*
X169223240Y-126623619D01*
X169223240Y-126623619D02*
X169128002Y-126623619D01*
X169128002Y-126623619D02*
X169032764Y-126576000D01*
X169032764Y-126576000D02*
X168985145Y-126528380D01*
X168985145Y-126528380D02*
X168937526Y-126433142D01*
X168937526Y-126433142D02*
X168889907Y-126242666D01*
X168889907Y-126242666D02*
X168889907Y-126004571D01*
X168889907Y-126004571D02*
X168937526Y-125814095D01*
X168937526Y-125814095D02*
X168985145Y-125718857D01*
X168985145Y-125718857D02*
X169032764Y-125671238D01*
X169032764Y-125671238D02*
X169128002Y-125623619D01*
X170413716Y-126623619D02*
X169842288Y-126623619D01*
X170128002Y-126623619D02*
X170128002Y-125623619D01*
X170128002Y-125623619D02*
X170032764Y-125766476D01*
X170032764Y-125766476D02*
X169937526Y-125861714D01*
X169937526Y-125861714D02*
X169842288Y-125909333D01*
X171747050Y-126052190D02*
X171651812Y-126004571D01*
X171651812Y-126004571D02*
X171604193Y-125956952D01*
X171604193Y-125956952D02*
X171556574Y-125861714D01*
X171556574Y-125861714D02*
X171556574Y-125814095D01*
X171556574Y-125814095D02*
X171604193Y-125718857D01*
X171604193Y-125718857D02*
X171651812Y-125671238D01*
X171651812Y-125671238D02*
X171747050Y-125623619D01*
X171747050Y-125623619D02*
X171937526Y-125623619D01*
X171937526Y-125623619D02*
X172032764Y-125671238D01*
X172032764Y-125671238D02*
X172080383Y-125718857D01*
X172080383Y-125718857D02*
X172128002Y-125814095D01*
X172128002Y-125814095D02*
X172128002Y-125861714D01*
X172128002Y-125861714D02*
X172080383Y-125956952D01*
X172080383Y-125956952D02*
X172032764Y-126004571D01*
X172032764Y-126004571D02*
X171937526Y-126052190D01*
X171937526Y-126052190D02*
X171747050Y-126052190D01*
X171747050Y-126052190D02*
X171651812Y-126099809D01*
X171651812Y-126099809D02*
X171604193Y-126147428D01*
X171604193Y-126147428D02*
X171556574Y-126242666D01*
X171556574Y-126242666D02*
X171556574Y-126433142D01*
X171556574Y-126433142D02*
X171604193Y-126528380D01*
X171604193Y-126528380D02*
X171651812Y-126576000D01*
X171651812Y-126576000D02*
X171747050Y-126623619D01*
X171747050Y-126623619D02*
X171937526Y-126623619D01*
X171937526Y-126623619D02*
X172032764Y-126576000D01*
X172032764Y-126576000D02*
X172080383Y-126528380D01*
X172080383Y-126528380D02*
X172128002Y-126433142D01*
X172128002Y-126433142D02*
X172128002Y-126242666D01*
X172128002Y-126242666D02*
X172080383Y-126147428D01*
X172080383Y-126147428D02*
X172032764Y-126099809D01*
X172032764Y-126099809D02*
X171937526Y-126052190D01*
X172556574Y-126623619D02*
X172556574Y-125623619D01*
X172556574Y-125623619D02*
X172937526Y-125623619D01*
X172937526Y-125623619D02*
X173032764Y-125671238D01*
X173032764Y-125671238D02*
X173080383Y-125718857D01*
X173080383Y-125718857D02*
X173128002Y-125814095D01*
X173128002Y-125814095D02*
X173128002Y-125956952D01*
X173128002Y-125956952D02*
X173080383Y-126052190D01*
X173080383Y-126052190D02*
X173032764Y-126099809D01*
X173032764Y-126099809D02*
X172937526Y-126147428D01*
X172937526Y-126147428D02*
X172556574Y-126147428D01*
X173556574Y-126623619D02*
X173556574Y-125623619D01*
X174032764Y-126623619D02*
X174032764Y-125623619D01*
X174032764Y-125623619D02*
X174604192Y-126623619D01*
X174604192Y-126623619D02*
X174604192Y-125623619D01*
X175842288Y-126623619D02*
X175842288Y-125623619D01*
X175842288Y-126099809D02*
X176413716Y-126099809D01*
X176413716Y-126623619D02*
X176413716Y-125623619D01*
X176889907Y-126099809D02*
X177223240Y-126099809D01*
X177366097Y-126623619D02*
X176889907Y-126623619D01*
X176889907Y-126623619D02*
X176889907Y-125623619D01*
X176889907Y-125623619D02*
X177366097Y-125623619D01*
X177747050Y-126337904D02*
X178223240Y-126337904D01*
X177651812Y-126623619D02*
X177985145Y-125623619D01*
X177985145Y-125623619D02*
X178318478Y-126623619D01*
X178651812Y-126623619D02*
X178651812Y-125623619D01*
X178651812Y-125623619D02*
X178889907Y-125623619D01*
X178889907Y-125623619D02*
X179032764Y-125671238D01*
X179032764Y-125671238D02*
X179128002Y-125766476D01*
X179128002Y-125766476D02*
X179175621Y-125861714D01*
X179175621Y-125861714D02*
X179223240Y-126052190D01*
X179223240Y-126052190D02*
X179223240Y-126195047D01*
X179223240Y-126195047D02*
X179175621Y-126385523D01*
X179175621Y-126385523D02*
X179128002Y-126480761D01*
X179128002Y-126480761D02*
X179032764Y-126576000D01*
X179032764Y-126576000D02*
X178889907Y-126623619D01*
X178889907Y-126623619D02*
X178651812Y-126623619D01*
X179651812Y-126099809D02*
X179985145Y-126099809D01*
X180128002Y-126623619D02*
X179651812Y-126623619D01*
X179651812Y-126623619D02*
X179651812Y-125623619D01*
X179651812Y-125623619D02*
X180128002Y-125623619D01*
X181128002Y-126623619D02*
X180794669Y-126147428D01*
X180556574Y-126623619D02*
X180556574Y-125623619D01*
X180556574Y-125623619D02*
X180937526Y-125623619D01*
X180937526Y-125623619D02*
X181032764Y-125671238D01*
X181032764Y-125671238D02*
X181080383Y-125718857D01*
X181080383Y-125718857D02*
X181128002Y-125814095D01*
X181128002Y-125814095D02*
X181128002Y-125956952D01*
X181128002Y-125956952D02*
X181080383Y-126052190D01*
X181080383Y-126052190D02*
X181032764Y-126099809D01*
X181032764Y-126099809D02*
X180937526Y-126147428D01*
X180937526Y-126147428D02*
X180556574Y-126147428D01*
X182651812Y-126099809D02*
X182794669Y-126147428D01*
X182794669Y-126147428D02*
X182842288Y-126195047D01*
X182842288Y-126195047D02*
X182889907Y-126290285D01*
X182889907Y-126290285D02*
X182889907Y-126433142D01*
X182889907Y-126433142D02*
X182842288Y-126528380D01*
X182842288Y-126528380D02*
X182794669Y-126576000D01*
X182794669Y-126576000D02*
X182699431Y-126623619D01*
X182699431Y-126623619D02*
X182318479Y-126623619D01*
X182318479Y-126623619D02*
X182318479Y-125623619D01*
X182318479Y-125623619D02*
X182651812Y-125623619D01*
X182651812Y-125623619D02*
X182747050Y-125671238D01*
X182747050Y-125671238D02*
X182794669Y-125718857D01*
X182794669Y-125718857D02*
X182842288Y-125814095D01*
X182842288Y-125814095D02*
X182842288Y-125909333D01*
X182842288Y-125909333D02*
X182794669Y-126004571D01*
X182794669Y-126004571D02*
X182747050Y-126052190D01*
X182747050Y-126052190D02*
X182651812Y-126099809D01*
X182651812Y-126099809D02*
X182318479Y-126099809D01*
X183889907Y-126623619D02*
X183556574Y-126147428D01*
X183318479Y-126623619D02*
X183318479Y-125623619D01*
X183318479Y-125623619D02*
X183699431Y-125623619D01*
X183699431Y-125623619D02*
X183794669Y-125671238D01*
X183794669Y-125671238D02*
X183842288Y-125718857D01*
X183842288Y-125718857D02*
X183889907Y-125814095D01*
X183889907Y-125814095D02*
X183889907Y-125956952D01*
X183889907Y-125956952D02*
X183842288Y-126052190D01*
X183842288Y-126052190D02*
X183794669Y-126099809D01*
X183794669Y-126099809D02*
X183699431Y-126147428D01*
X183699431Y-126147428D02*
X183318479Y-126147428D01*
X184318479Y-126099809D02*
X184651812Y-126099809D01*
X184794669Y-126623619D02*
X184318479Y-126623619D01*
X184318479Y-126623619D02*
X184318479Y-125623619D01*
X184318479Y-125623619D02*
X184794669Y-125623619D01*
X185175622Y-126337904D02*
X185651812Y-126337904D01*
X185080384Y-126623619D02*
X185413717Y-125623619D01*
X185413717Y-125623619D02*
X185747050Y-126623619D01*
X186080384Y-126623619D02*
X186080384Y-125623619D01*
X186651812Y-126623619D02*
X186223241Y-126052190D01*
X186651812Y-125623619D02*
X186080384Y-126195047D01*
X187270860Y-125623619D02*
X187461336Y-125623619D01*
X187461336Y-125623619D02*
X187556574Y-125671238D01*
X187556574Y-125671238D02*
X187651812Y-125766476D01*
X187651812Y-125766476D02*
X187699431Y-125956952D01*
X187699431Y-125956952D02*
X187699431Y-126290285D01*
X187699431Y-126290285D02*
X187651812Y-126480761D01*
X187651812Y-126480761D02*
X187556574Y-126576000D01*
X187556574Y-126576000D02*
X187461336Y-126623619D01*
X187461336Y-126623619D02*
X187270860Y-126623619D01*
X187270860Y-126623619D02*
X187175622Y-126576000D01*
X187175622Y-126576000D02*
X187080384Y-126480761D01*
X187080384Y-126480761D02*
X187032765Y-126290285D01*
X187032765Y-126290285D02*
X187032765Y-125956952D01*
X187032765Y-125956952D02*
X187080384Y-125766476D01*
X187080384Y-125766476D02*
X187175622Y-125671238D01*
X187175622Y-125671238D02*
X187270860Y-125623619D01*
X188128003Y-125623619D02*
X188128003Y-126433142D01*
X188128003Y-126433142D02*
X188175622Y-126528380D01*
X188175622Y-126528380D02*
X188223241Y-126576000D01*
X188223241Y-126576000D02*
X188318479Y-126623619D01*
X188318479Y-126623619D02*
X188508955Y-126623619D01*
X188508955Y-126623619D02*
X188604193Y-126576000D01*
X188604193Y-126576000D02*
X188651812Y-126528380D01*
X188651812Y-126528380D02*
X188699431Y-126433142D01*
X188699431Y-126433142D02*
X188699431Y-125623619D01*
X189032765Y-125623619D02*
X189604193Y-125623619D01*
X189318479Y-126623619D02*
X189318479Y-125623619D01*
X191032765Y-126099809D02*
X191175622Y-126147428D01*
X191175622Y-126147428D02*
X191223241Y-126195047D01*
X191223241Y-126195047D02*
X191270860Y-126290285D01*
X191270860Y-126290285D02*
X191270860Y-126433142D01*
X191270860Y-126433142D02*
X191223241Y-126528380D01*
X191223241Y-126528380D02*
X191175622Y-126576000D01*
X191175622Y-126576000D02*
X191080384Y-126623619D01*
X191080384Y-126623619D02*
X190699432Y-126623619D01*
X190699432Y-126623619D02*
X190699432Y-125623619D01*
X190699432Y-125623619D02*
X191032765Y-125623619D01*
X191032765Y-125623619D02*
X191128003Y-125671238D01*
X191128003Y-125671238D02*
X191175622Y-125718857D01*
X191175622Y-125718857D02*
X191223241Y-125814095D01*
X191223241Y-125814095D02*
X191223241Y-125909333D01*
X191223241Y-125909333D02*
X191175622Y-126004571D01*
X191175622Y-126004571D02*
X191128003Y-126052190D01*
X191128003Y-126052190D02*
X191032765Y-126099809D01*
X191032765Y-126099809D02*
X190699432Y-126099809D01*
X191889908Y-125623619D02*
X192080384Y-125623619D01*
X192080384Y-125623619D02*
X192175622Y-125671238D01*
X192175622Y-125671238D02*
X192270860Y-125766476D01*
X192270860Y-125766476D02*
X192318479Y-125956952D01*
X192318479Y-125956952D02*
X192318479Y-126290285D01*
X192318479Y-126290285D02*
X192270860Y-126480761D01*
X192270860Y-126480761D02*
X192175622Y-126576000D01*
X192175622Y-126576000D02*
X192080384Y-126623619D01*
X192080384Y-126623619D02*
X191889908Y-126623619D01*
X191889908Y-126623619D02*
X191794670Y-126576000D01*
X191794670Y-126576000D02*
X191699432Y-126480761D01*
X191699432Y-126480761D02*
X191651813Y-126290285D01*
X191651813Y-126290285D02*
X191651813Y-125956952D01*
X191651813Y-125956952D02*
X191699432Y-125766476D01*
X191699432Y-125766476D02*
X191794670Y-125671238D01*
X191794670Y-125671238D02*
X191889908Y-125623619D01*
X192699432Y-126337904D02*
X193175622Y-126337904D01*
X192604194Y-126623619D02*
X192937527Y-125623619D01*
X192937527Y-125623619D02*
X193270860Y-126623619D01*
X194175622Y-126623619D02*
X193842289Y-126147428D01*
X193604194Y-126623619D02*
X193604194Y-125623619D01*
X193604194Y-125623619D02*
X193985146Y-125623619D01*
X193985146Y-125623619D02*
X194080384Y-125671238D01*
X194080384Y-125671238D02*
X194128003Y-125718857D01*
X194128003Y-125718857D02*
X194175622Y-125814095D01*
X194175622Y-125814095D02*
X194175622Y-125956952D01*
X194175622Y-125956952D02*
X194128003Y-126052190D01*
X194128003Y-126052190D02*
X194080384Y-126099809D01*
X194080384Y-126099809D02*
X193985146Y-126147428D01*
X193985146Y-126147428D02*
X193604194Y-126147428D01*
X194604194Y-126623619D02*
X194604194Y-125623619D01*
X194604194Y-125623619D02*
X194842289Y-125623619D01*
X194842289Y-125623619D02*
X194985146Y-125671238D01*
X194985146Y-125671238D02*
X195080384Y-125766476D01*
X195080384Y-125766476D02*
X195128003Y-125861714D01*
X195128003Y-125861714D02*
X195175622Y-126052190D01*
X195175622Y-126052190D02*
X195175622Y-126195047D01*
X195175622Y-126195047D02*
X195128003Y-126385523D01*
X195128003Y-126385523D02*
X195080384Y-126480761D01*
X195080384Y-126480761D02*
X194985146Y-126576000D01*
X194985146Y-126576000D02*
X194842289Y-126623619D01*
X194842289Y-126623619D02*
X194604194Y-126623619D01*
M02*
